<svg width="24" height="24" viewBox="0 0 24 24" fill="none" xmlns="http://www.w3.org/2000/svg">
<g clip-path="url(#clip0_4033_69)">
<path d="M22.1211 14.7338V5.99203L11.4619 0L0.802734 5.99203V17.9761L11.4619 23.9681L14.2975 22.3741C15.3046 23.3766 16.7084 24 18.259 24C21.3158 24 23.8027 21.5785 23.8027 18.6022C23.8027 17.0866 23.1576 15.7152 22.1211 14.7338ZM11.4619 1.62591L19.9518 6.39848L16.4299 8.3783L7.94006 3.60572L11.4619 1.62591ZM10.7388 21.9357L2.24894 17.1631V7.61798L10.7388 12.3906V21.9357ZM2.97204 6.39848L6.49386 4.41867L14.9837 9.19125L11.4619 11.1711L2.97204 6.39848ZM12.185 21.9357V12.3905L20.6748 7.61794V13.7445C19.9442 13.3987 19.1245 13.2045 18.259 13.2045C15.2022 13.2045 12.7152 15.6259 12.7152 18.6022C12.7152 19.5595 12.9728 20.4592 13.4235 21.2395L12.185 21.9357ZM18.259 22.5919C15.9996 22.5919 14.1614 20.8021 14.1614 18.6022C14.1614 16.4023 15.9996 14.6125 18.259 14.6125C20.5184 14.6125 22.3565 16.4023 22.3565 18.6022C22.3565 20.8021 20.5184 22.5919 18.259 22.5919Z" fill="#292929"/>
<path d="M20.3288 17L18.0233 19.3182L16.9906 18.296L16 19.2966L18.0311 21.3073L21.3272 17.9929L20.3288 17Z" fill="#F91F3E"/>
</g>
<defs>
<clipPath id="clip0_4033_69">
<rect width="24" height="24" fill="white"/>
</clipPath>
</defs>
</svg>
