<svg width="24" height="24" viewBox="0 0 24 24" fill="none" xmlns="http://www.w3.org/2000/svg">
<path d="M17.3438 17.1562C17.8615 17.1562 18.2812 16.7365 18.2812 16.2188C18.2812 15.701 17.8615 15.2812 17.3438 15.2812C16.826 15.2812 16.4062 15.701 16.4062 16.2188C16.4062 16.7365 16.826 17.1562 17.3438 17.1562Z" fill="#F91F3E"/>
<path d="M21.5625 16.9688C22.0803 16.9688 22.5 16.549 22.5 16.0312V12.5625C22.5 10.4948 20.8177 8.8125 18.75 8.8125H17.6233V5.50622C17.6233 2.47008 15.0999 0 11.9983 0C8.89664 0 6.37327 2.47008 6.37327 5.50622V8.8125H5.25C3.18225 8.8125 1.5 10.4948 1.5 12.5625V20.25C1.5 22.3177 3.18225 24 5.25 24H18.75C20.8177 24 22.5 22.3177 22.5 20.25C22.5 19.7322 22.0803 19.3125 21.5625 19.3125C21.0447 19.3125 20.625 19.7322 20.625 20.25C20.625 21.2839 19.7839 22.125 18.75 22.125H5.25C4.21613 22.125 3.375 21.2839 3.375 20.25V12.5625C3.375 11.5286 4.21613 10.6875 5.25 10.6875H18.75C19.7839 10.6875 20.625 11.5286 20.625 12.5625V16.0312C20.625 16.549 21.0447 16.9688 21.5625 16.9688ZM15.7483 8.8125H8.24827V5.50622C8.24827 3.50395 9.93052 1.875 11.9983 1.875C14.066 1.875 15.7483 3.50395 15.7483 5.50622V8.8125Z" fill="#292929"/>
<path d="M10.2656 17.1562C10.7834 17.1562 11.2031 16.7365 11.2031 16.2188C11.2031 15.701 10.7834 15.2812 10.2656 15.2812C9.74786 15.2812 9.32812 15.701 9.32812 16.2188C9.32812 16.7365 9.74786 17.1562 10.2656 17.1562Z" fill="#F91F3E"/>
<path d="M6.75 17.1562C7.26777 17.1562 7.6875 16.7365 7.6875 16.2188C7.6875 15.701 7.26777 15.2812 6.75 15.2812C6.23223 15.2812 5.8125 15.701 5.8125 16.2188C5.8125 16.7365 6.23223 17.1562 6.75 17.1562Z" fill="#F91F3E"/>
<path d="M13.7812 17.1562C14.299 17.1562 14.7188 16.7365 14.7188 16.2188C14.7188 15.701 14.299 15.2812 13.7812 15.2812C13.2635 15.2812 12.8438 15.701 12.8438 16.2188C12.8438 16.7365 13.2635 17.1562 13.7812 17.1562Z" fill="#F91F3E"/>
</svg>
