<svg width="20" height="20" viewBox="0 0 20 20" fill="none" xmlns="http://www.w3.org/2000/svg">
<path d="M10.0469 6.03748C11.3413 6.03748 12.3906 4.98814 12.3906 3.69373C12.3906 2.39931 11.3413 1.34998 10.0469 1.34998C8.75246 1.34998 7.70312 2.39931 7.70312 3.69373C7.70312 4.98814 8.75246 6.03748 10.0469 6.03748Z" fill="#26A69A"/>
<path d="M10.0463 3.43437C10.3345 3.43437 10.5682 3.20072 10.5682 2.9125C10.5682 2.62428 10.3345 2.39062 10.0463 2.39062C9.75807 2.39062 9.52441 2.62428 9.52441 2.9125C9.52441 3.20072 9.75807 3.43437 10.0463 3.43437Z" fill="white"/>
<path d="M9.00586 4.47494C9.02046 4.2084 9.13663 3.95759 9.33047 3.77407C9.52432 3.59056 9.78111 3.48828 10.048 3.48828C10.315 3.48828 10.5718 3.59056 10.7656 3.77407C10.9595 3.95759 11.0756 4.2084 11.0902 4.47494H9.00586Z" fill="white"/>
<path d="M18.5424 10.5254L14.0618 6.04479C13.9397 5.92277 13.7419 5.92277 13.6199 6.04479L11.8966 7.7681C11.7745 7.89012 11.7745 8.08796 11.8966 8.20998L16.3772 12.6906C16.4992 12.8126 16.697 12.8126 16.8191 12.6906L18.5424 10.9673C18.6644 10.8453 18.6644 10.6474 18.5424 10.5254Z" fill="#1E88E5"/>
<path d="M5.93495 6.24401L1.45434 10.7246C1.33232 10.8466 1.33232 11.0445 1.45434 11.1665L3.17765 12.8898C3.29967 13.0118 3.4975 13.0118 3.61952 12.8898L8.10014 8.40919C8.22216 8.28717 8.22216 8.08934 8.10014 7.96732L6.37682 6.24401C6.2548 6.12199 6.05697 6.12199 5.93495 6.24401Z" fill="#1E88E5"/>
<path d="M14.1686 15.2125L9.70293 10.75L9.50605 10.5531C9.43745 10.4843 9.35194 10.4348 9.25814 10.4096C9.16433 10.3844 9.06553 10.3843 8.97168 10.4094L7.5373 8.97498L4.19043 12.325L5.6248 13.75C5.59934 13.8436 5.59893 13.9422 5.62361 14.036C5.64829 14.1298 5.6972 14.2154 5.76543 14.2844L5.9623 14.4812L9.7123 18.2312L9.96855 18.4875C10.0627 18.5809 10.1869 18.6379 10.3192 18.6482C10.4514 18.6585 10.583 18.6214 10.6904 18.5437L11.3436 18.0687L11.3092 18.0437L10.7186 17.4531C10.6993 17.4338 10.684 17.4109 10.6735 17.3857C10.6631 17.3605 10.6577 17.3335 10.6577 17.3062C10.6577 17.2789 10.6631 17.2519 10.6735 17.2267C10.684 17.2015 10.6993 17.1786 10.7186 17.1594C10.7378 17.1401 10.7607 17.1248 10.7859 17.1143C10.8111 17.1039 10.8382 17.0985 10.8654 17.0985C10.8927 17.0985 10.9197 17.1039 10.9449 17.1143C10.9701 17.1248 10.993 17.1401 11.0123 17.1594L11.5936 17.75C11.6174 17.7769 11.6345 17.809 11.6436 17.8437L12.2404 17.4094L11.6936 16.875C11.6546 16.836 11.6327 16.7832 11.6327 16.7281C11.6327 16.673 11.6546 16.6202 11.6936 16.5812C11.7325 16.5423 11.7853 16.5204 11.8404 16.5204C11.8955 16.5204 11.9484 16.5423 11.9873 16.5812L12.5779 17.1719L13.1529 16.7531L12.6779 16.2812C12.639 16.2423 12.6171 16.1894 12.6171 16.1344C12.6171 16.0793 12.639 16.0264 12.6779 15.9875C12.7169 15.9485 12.7697 15.9266 12.8248 15.9266C12.8799 15.9266 12.9327 15.9485 12.9717 15.9875L13.4904 16.5062L14.0998 16.0625C14.1666 16.0158 14.2222 15.955 14.2628 15.8843C14.3033 15.8136 14.3277 15.7349 14.3343 15.6537C14.3409 15.5725 14.3294 15.4908 14.3008 15.4145C14.2721 15.3383 14.227 15.2693 14.1686 15.2125Z" fill="#90CAF9"/>
<path d="M7.52833 14.0846L7.30077 13.857C7.10553 13.6618 6.789 13.6618 6.59377 13.857L5.72548 14.7253C5.53025 14.9206 5.53025 15.2371 5.72548 15.4323L5.95305 15.6599C6.14828 15.8551 6.46481 15.8551 6.66005 15.6599L7.52833 14.7916C7.72356 14.5964 7.72356 14.2798 7.52833 14.0846Z" fill="#E3F2FD"/>
<path d="M8.66407 14.8211L8.43651 14.5935C8.24128 14.3983 7.92474 14.3983 7.72951 14.5935L6.66459 15.6584C6.46936 15.8536 6.46936 16.1702 6.66459 16.3654L6.89216 16.593C7.08739 16.7882 7.40392 16.7882 7.59916 16.593L8.66407 15.5281C8.85931 15.3328 8.85931 15.0163 8.66407 14.8211Z" fill="#E3F2FD"/>
<path d="M9.4004 15.9564L9.17284 15.7288C8.9776 15.5336 8.66107 15.5336 8.46584 15.7288L7.59755 16.5971C7.40232 16.7923 7.40232 17.1089 7.59755 17.3041L7.82512 17.5317C8.02035 17.7269 8.33688 17.7269 8.53212 17.5317L9.4004 16.6634C9.59563 16.4681 9.59563 16.1516 9.4004 15.9564Z" fill="#E3F2FD"/>
<path d="M10.1388 17.0865L9.91117 16.8589C9.71591 16.6636 9.39933 16.6636 9.20406 16.8589L8.53231 17.5306C8.33705 17.7259 8.33705 18.0425 8.53231 18.2377L8.75991 18.4653C8.95517 18.6606 9.27176 18.6606 9.46702 18.4653L10.1388 17.7936C10.334 17.5983 10.334 17.2817 10.1388 17.0865Z" fill="#E3F2FD"/>
<path d="M10.4408 12.4125C10.4991 12.3515 10.5692 12.303 10.6468 12.2698C10.7244 12.2366 10.8079 12.2196 10.8923 12.2196C10.9767 12.2196 11.0602 12.2366 11.1379 12.2698C11.2155 12.303 11.2855 12.3515 11.3439 12.4125L14.2345 15.2812L14.5126 14.1656C14.5379 14.0599 14.5421 13.9504 14.525 13.8431C14.5078 13.7359 14.4696 13.633 14.4126 13.5406L15.8095 12.1437L12.4626 8.77808L11.4595 9.7812C11.3577 9.8735 11.2381 9.9441 11.1081 9.98869C10.9781 10.0333 10.8403 10.0509 10.7033 10.0406C10.6143 10.0381 10.5258 10.0537 10.4431 10.0864C10.3603 10.1192 10.2851 10.1685 10.222 10.2312L9.24702 11.2062C9.16604 11.2854 9.1017 11.3799 9.05777 11.4843C9.01384 11.5887 8.99121 11.7008 8.99121 11.814C8.99121 11.9273 9.01384 12.0394 9.05777 12.1437C9.1017 12.2481 9.16604 12.3427 9.24702 12.4218C9.32599 12.4996 9.41953 12.5611 9.52228 12.6028C9.62502 12.6444 9.73497 12.6654 9.84584 12.6645C9.9567 12.6637 10.0663 12.641 10.1684 12.5977C10.2705 12.5544 10.363 12.4915 10.4408 12.4125Z" fill="#E3F2FD"/>
<path d="M16.5432 12.0313C16.8038 12.0313 17.015 11.82 17.015 11.5594C17.015 11.2988 16.8038 11.0875 16.5432 11.0875C16.2826 11.0875 16.0713 11.2988 16.0713 11.5594C16.0713 11.82 16.2826 12.0313 16.5432 12.0313Z" fill="white"/>
<path d="M3.22773 12.0313C3.48834 12.0313 3.69961 11.82 3.69961 11.5594C3.69961 11.2988 3.48834 11.0875 3.22773 11.0875C2.96713 11.0875 2.75586 11.2988 2.75586 11.5594C2.75586 11.82 2.96713 12.0313 3.22773 12.0313Z" fill="white"/>
<path d="M4.26562 8.25623C5.6636 8.25623 6.79688 7.12295 6.79688 5.72498C6.79688 4.327 5.6636 3.19373 4.26562 3.19373C2.86765 3.19373 1.73438 4.327 1.73438 5.72498C1.73438 7.12295 2.86765 8.25623 4.26562 8.25623Z" fill="#FFCA28"/>
<path d="M4.26487 5.41252C4.24001 5.41252 4.21616 5.40264 4.19858 5.38506C4.181 5.36748 4.17112 5.34363 4.17112 5.31877C4.1719 5.29415 4.18203 5.27076 4.19945 5.25334C4.21686 5.23593 4.24025 5.2258 4.26487 5.22502H4.68674C4.76963 5.22958 4.85092 5.20102 4.91275 5.14564C4.97458 5.09026 5.01187 5.01259 5.01643 4.92971C5.02099 4.84683 4.99244 4.76553 4.93706 4.7037C4.88167 4.64187 4.804 4.60458 4.72112 4.60002C4.71863 4.51714 4.68332 4.43864 4.62296 4.38179C4.5626 4.32495 4.48213 4.29441 4.39924 4.29689C4.31636 4.29938 4.23787 4.33469 4.18102 4.39505C4.12417 4.45542 4.09363 4.53589 4.09612 4.61877C3.92428 4.65883 3.7733 4.76096 3.67217 4.90555C3.57104 5.05014 3.5269 5.22699 3.54821 5.40215C3.56952 5.5773 3.65479 5.73841 3.78765 5.85452C3.9205 5.97064 4.09156 6.03359 4.26799 6.03127C4.29286 6.03127 4.3167 6.04115 4.33429 6.05873C4.35187 6.07631 4.36174 6.10015 4.36174 6.12502C4.36218 6.13745 4.36005 6.14983 4.3555 6.16141C4.35094 6.17298 4.34405 6.18349 4.33526 6.19228C4.32646 6.20107 4.31595 6.20797 4.30438 6.21252C4.29281 6.21708 4.28042 6.21921 4.26799 6.21877H3.86174C3.77886 6.21877 3.69938 6.25169 3.64077 6.3103C3.58217 6.3689 3.54924 6.44839 3.54924 6.53127C3.54924 6.61415 3.58217 6.69363 3.64077 6.75224C3.69938 6.81084 3.77886 6.84377 3.86174 6.84377H4.09924C4.10916 6.91942 4.14641 6.98884 4.20398 7.03892C4.26155 7.089 4.33545 7.11629 4.41174 7.11564C4.49463 7.11564 4.57411 7.08272 4.63272 7.02411C4.69132 6.96551 4.72424 6.88602 4.72424 6.80314V6.68439C4.83987 6.5911 4.92374 6.46427 4.96433 6.32136C5.00491 6.17844 5.00021 6.02646 4.95087 5.88632C4.90153 5.74619 4.80998 5.62478 4.68881 5.53882C4.56764 5.45285 4.42281 5.40654 4.27425 5.40627L4.26487 5.41252Z" fill="white"/>
<path d="M15.8281 8.38123C17.2261 8.38123 18.3594 7.24795 18.3594 5.84998C18.3594 4.452 17.2261 3.31873 15.8281 3.31873C14.4302 3.31873 13.2969 4.452 13.2969 5.84998C13.2969 7.24795 14.4302 8.38123 15.8281 8.38123Z" fill="#FFCA28"/>
<path d="M15.8274 5.53752C15.8025 5.53752 15.7787 5.52764 15.7611 5.51006C15.7435 5.49248 15.7336 5.46863 15.7336 5.44377C15.7344 5.41915 15.7445 5.39576 15.7619 5.37834C15.7794 5.36093 15.8028 5.3508 15.8274 5.35002H16.2492C16.3321 5.35458 16.4134 5.32602 16.4753 5.27064C16.5371 5.21526 16.5744 5.13759 16.5789 5.05471C16.5835 4.97183 16.5549 4.89053 16.4996 4.8287C16.4442 4.76687 16.3665 4.72958 16.2836 4.72502C16.2811 4.64214 16.2458 4.56364 16.1855 4.50679C16.1251 4.44995 16.0446 4.41941 15.9617 4.42189C15.8789 4.42438 15.8004 4.45969 15.7435 4.52005C15.6867 4.58042 15.6561 4.66089 15.6586 4.74377C15.4868 4.78383 15.3358 4.88596 15.2347 5.03055C15.1335 5.17514 15.0894 5.35199 15.1107 5.52715C15.132 5.7023 15.2173 5.86341 15.3501 5.97952C15.483 6.09564 15.6541 6.15859 15.8305 6.15627C15.8554 6.15627 15.8792 6.16615 15.8968 6.18373C15.9144 6.20131 15.9242 6.22515 15.9242 6.25002C15.9247 6.26245 15.9226 6.27483 15.918 6.28641C15.9134 6.29798 15.9066 6.30849 15.8978 6.31728C15.889 6.32608 15.8785 6.33297 15.8669 6.33752C15.8553 6.34208 15.8429 6.34421 15.8305 6.34377H15.4242C15.3414 6.34377 15.2619 6.37669 15.2033 6.4353C15.1447 6.4939 15.1117 6.57339 15.1117 6.65627C15.1117 6.73915 15.1447 6.81863 15.2033 6.87724C15.2619 6.93584 15.3414 6.96877 15.4242 6.96877H15.6617C15.6717 7.04442 15.7089 7.11384 15.7665 7.16392C15.824 7.214 15.8979 7.24129 15.9742 7.24064C16.0571 7.24064 16.1366 7.20772 16.1952 7.14911C16.2538 7.09051 16.2867 7.01102 16.2867 6.92814V6.80939C16.4024 6.7161 16.4862 6.58927 16.5268 6.44636C16.5674 6.30344 16.5627 6.15146 16.5134 6.01132C16.464 5.87119 16.3725 5.74978 16.2513 5.66382C16.1301 5.57785 15.9853 5.53154 15.8367 5.53127L15.8274 5.53752Z" fill="white"/>
</svg>
