<svg width="24" height="24" viewBox="0 0 24 24" fill="none" xmlns="http://www.w3.org/2000/svg">
<g clip-path="url(#clip0_4033_83)">
<path d="M23.087 5.54548L12.489 0.175622L12.4847 0.173419C12.0127 -0.0615182 11.4521 -0.0562681 10.9846 0.187482C10.9478 0.203044 0.919547 5.52551 0.88575 5.54726C0.339375 5.83329 0 6.39383 0 7.01075V16.9895C0 17.6065 0.339375 18.167 0.88575 18.453L10.98 23.8105L10.9846 23.8129C11.223 23.9372 11.4857 23.9995 11.7485 23.9995C12.0009 23.9995 12.2535 23.942 12.4847 23.8269L23.087 18.4548C23.6503 18.1731 24 17.6073 24 16.9774V7.02298C24 6.39303 23.6502 5.82715 23.087 5.54548ZM11.6361 1.43314C11.705 1.39779 11.7872 1.39709 11.8567 1.43117L21.7768 6.45753L17.9159 8.37969L8.21756 3.24748L11.6361 1.43314ZM11.0355 22.2485L1.54266 17.2102L1.53811 17.2078C1.4565 17.1652 1.40573 17.0817 1.40573 16.9896V7.64511L11.0355 12.6665V22.2485ZM11.7458 11.4515L2.169 6.45767L6.717 4.04394L16.3674 9.15073L11.7458 11.4515ZM22.5942 16.9774C22.5942 17.0713 22.5419 17.1558 22.4577 17.1977L12.4413 22.2729V12.6756L17.0531 10.3796V12.7869C17.0531 13.175 17.3678 13.4898 17.756 13.4898C18.1442 13.4898 18.4589 13.175 18.4589 12.7869V9.67976L22.5942 7.62101V16.9774Z" fill="#292929"/>
<path d="M8.49811 13.8009C8.30171 13.466 7.87102 13.3539 7.53619 13.5503L5.35946 14.8274L4.90238 13.9993C4.71478 13.6594 4.28714 13.5359 3.94735 13.7235C3.6075 13.9111 3.48403 14.3387 3.67163 14.6786L4.47736 16.1384C4.47924 16.1418 4.48139 16.145 4.48331 16.1483C4.48444 16.1504 4.48533 16.1524 4.4865 16.1544C4.48917 16.159 4.49217 16.1633 4.49494 16.1678C4.49911 16.1746 4.50333 16.1814 4.50774 16.188C4.51219 16.1947 4.51678 16.2012 4.52142 16.2077C4.52611 16.2142 4.5308 16.2208 4.53567 16.2272C4.5405 16.2335 4.54552 16.2396 4.55049 16.2457C4.55555 16.2518 4.56056 16.2579 4.56577 16.2638C4.57102 16.2698 4.57641 16.2755 4.58185 16.2812C4.58714 16.2869 4.59244 16.2925 4.59792 16.298C4.60364 16.3036 4.60955 16.3091 4.61541 16.3145C4.62089 16.3196 4.62633 16.3247 4.63191 16.3296C4.63814 16.335 4.64461 16.3402 4.65103 16.3454C4.65656 16.3498 4.66205 16.3544 4.66772 16.3587C4.67447 16.3638 4.68136 16.3686 4.68825 16.3734C4.69392 16.3774 4.6995 16.3814 4.70527 16.3852C4.71239 16.3899 4.71971 16.3943 4.72702 16.3988C4.73278 16.4023 4.7385 16.4059 4.74436 16.4092C4.75186 16.4135 4.75955 16.4174 4.76719 16.4214C4.77305 16.4245 4.77886 16.4277 4.78481 16.4306C4.7926 16.4344 4.80057 16.4378 4.80849 16.4413C4.81453 16.444 4.82049 16.4468 4.82658 16.4493C4.83446 16.4525 4.84252 16.4553 4.85049 16.4583C4.85681 16.4606 4.86305 16.4631 4.86942 16.4652C4.87735 16.4679 4.88541 16.4701 4.89338 16.4725C4.89994 16.4744 4.90646 16.4766 4.91311 16.4783C4.92099 16.4804 4.92896 16.482 4.93688 16.4838C4.94377 16.4854 4.95066 16.4872 4.9576 16.4886C4.96514 16.4901 4.97278 16.4911 4.98038 16.4924C4.98783 16.4936 4.99519 16.495 5.00269 16.496C5.00986 16.4969 5.01703 16.4974 5.02425 16.4981C5.03222 16.4989 5.04019 16.4999 5.04816 16.5004C5.05449 16.5008 5.06081 16.5008 5.06714 16.501C5.07596 16.5014 5.08472 16.5019 5.09353 16.5019C5.10839 16.5019 5.12325 16.5014 5.13811 16.5005C5.14191 16.5002 5.14571 16.4997 5.1495 16.4994C5.16042 16.4985 5.17135 16.4976 5.18227 16.4962C5.18789 16.4955 5.19347 16.4944 5.19905 16.4936C5.20814 16.4922 5.21719 16.4909 5.22624 16.4891C5.23271 16.4879 5.23917 16.4863 5.24564 16.4848C5.25375 16.483 5.26186 16.4812 5.26992 16.4791C5.27691 16.4773 5.2838 16.4752 5.29074 16.4731C5.29828 16.4709 5.30578 16.4688 5.31328 16.4663C5.32041 16.4639 5.32744 16.4613 5.33452 16.4587C5.34178 16.456 5.34905 16.4534 5.35627 16.4504C5.36335 16.4476 5.37033 16.4444 5.37736 16.4414C5.38449 16.4382 5.39166 16.435 5.39874 16.4316C5.40558 16.4282 5.41233 16.4247 5.41908 16.4212C5.42358 16.4188 5.42817 16.4167 5.43263 16.4142C5.4345 16.4132 5.43619 16.4119 5.43811 16.4108C5.44163 16.4089 5.44519 16.4072 5.44866 16.4051L8.2478 14.7629C8.58235 14.5664 8.69456 14.1357 8.49811 13.8009Z" fill="#F91F3E"/>
</g>
<defs>
<clipPath id="clip0_4033_83">
<rect width="24" height="24" fill="white"/>
</clipPath>
</defs>
</svg>
