<svg width="24" height="24" viewBox="0 0 24 24" fill="none" xmlns="http://www.w3.org/2000/svg">
<path d="M4.012 16.737C3.70534 16.5622 3.45027 16.3095 3.27258 16.0045C3.09488 15.6995 3.00085 15.353 3 15V5.00001C3 3.90001 3.9 3.00001 5 3.00001H15C15.75 3.00001 16.158 3.38501 16.5 4.00001M7 9.66701C7 8.95968 7.28099 8.28132 7.78115 7.78116C8.28131 7.281 8.95967 7.00001 9.667 7.00001H18.333C18.6832 7.00001 19.03 7.06899 19.3536 7.20302C19.6772 7.33705 19.9712 7.5335 20.2189 7.78116C20.4665 8.02881 20.663 8.32282 20.797 8.64639C20.931 8.96997 21 9.31677 21 9.66701V18.333C21 18.6832 20.931 19.0301 20.797 19.3536C20.663 19.6772 20.4665 19.9712 20.2189 20.2189C19.9712 20.4665 19.6772 20.663 19.3536 20.797C19.03 20.931 18.6832 21 18.333 21H9.667C9.31677 21 8.96996 20.931 8.64638 20.797C8.32281 20.663 8.0288 20.4665 7.78115 20.2189C7.53349 19.9712 7.33704 19.6772 7.20301 19.3536C7.06898 19.0301 7 18.6832 7 18.333V9.66701Z" stroke="#747474" stroke-width="1.66776" stroke-linecap="round" stroke-linejoin="round"/>
</svg>
