<svg width="60" height="60" viewBox="0 0 60 60" fill="none" xmlns="http://www.w3.org/2000/svg">
<path d="M30 0C24.0666 0 18.2664 1.75947 13.3329 5.05591C8.39943 8.35235 4.55426 13.0377 2.28363 18.5195C0.0129986 24.0013 -0.581102 30.0333 0.576455 35.8527C1.73401 41.6721 4.59123 47.0176 8.78681 51.2132C12.9824 55.4088 18.3279 58.266 24.1473 59.4236C29.9667 60.5811 35.9987 59.987 41.4805 57.7164C46.9623 55.4458 51.6477 51.6006 54.9441 46.6671C58.2405 41.7336 60 35.9334 60 30C59.9895 22.0467 56.8254 14.4222 51.2016 8.79844C45.5778 3.17463 37.9533 0.0105403 30 0ZM46.7625 21.7625L28.0125 40.5125C27.7823 40.7461 27.5079 40.9316 27.2053 41.0582C26.9027 41.1848 26.578 41.25 26.25 41.25C25.922 41.25 25.5973 41.1848 25.2947 41.0582C24.9922 40.9316 24.7178 40.7461 24.4875 40.5125L15.7375 31.7625C15.2701 31.2951 15.0075 30.6611 15.0075 30C15.0075 29.3389 15.2701 28.7049 15.7375 28.2375C16.205 27.7701 16.8389 27.5074 17.5 27.5074C18.1611 27.5074 18.7951 27.7701 19.2625 28.2375L26.25 35.2125L43.2375 18.2375C43.705 17.7701 44.3389 17.5074 45 17.5074C45.6611 17.5074 46.2951 17.7701 46.7625 18.2375C47.23 18.7049 47.4926 19.3389 47.4926 20C47.4926 20.6611 47.23 21.2951 46.7625 21.7625Z" fill="#88C941"/>
<path d="M46.7629 21.7625L28.0129 40.5125C27.7826 40.7461 27.5082 40.9316 27.2057 41.0582C26.9031 41.1848 26.5784 41.25 26.2504 41.25C25.9224 41.25 25.5976 41.1848 25.2951 41.0582C24.9925 40.9316 24.7181 40.7461 24.4879 40.5125L15.7379 31.7625C15.2704 31.2951 15.0078 30.6611 15.0078 30C15.0078 29.3389 15.2704 28.7049 15.7379 28.2375C16.2053 27.7701 16.8393 27.5074 17.5004 27.5074C18.1614 27.5074 18.7954 27.7701 19.2629 28.2375L26.2504 35.2125L43.2379 18.2375C43.7053 17.7701 44.3393 17.5074 45.0004 17.5074C45.6614 17.5074 46.2954 17.7701 46.7629 18.2375C47.2303 18.7049 47.4929 19.3389 47.4929 20C47.4929 20.6611 47.2303 21.2951 46.7629 21.7625Z" fill="white"/>
</svg>
