<svg width="24" height="24" viewBox="0 0 24 24" fill="none" xmlns="http://www.w3.org/2000/svg">
<path fill-rule="evenodd" clip-rule="evenodd" d="M11.7531 1.5C9.52277 1.5 7.71467 3.30808 7.71467 5.53846V6.34615H5.92976C4.69509 6.34615 3.65786 7.27451 3.52151 8.50164L2.26511 19.8093C2.10562 21.2447 3.22917 22.5 4.67336 22.5H14.1762C14.6223 22.5 14.9839 22.1384 14.9839 21.6923C14.9839 21.2462 14.6223 20.8846 14.1762 20.8846H4.67336C4.19196 20.8846 3.81744 20.4661 3.8706 19.9877L5.12701 8.68006C5.17246 8.27096 5.5182 7.96154 5.92976 7.96154H7.71467V9.57692C7.71467 10.023 8.07627 10.3846 8.52236 10.3846C8.96845 10.3846 9.33005 10.023 9.33005 9.57692V7.96154H14.1762V9.57692C14.1762 10.023 14.5378 10.3846 14.9839 10.3846C15.43 10.3846 15.7916 10.023 15.7916 9.57692V7.96154H17.5765C17.9881 7.96154 18.3339 8.27096 18.3792 8.68006L19.0273 14.5122C19.0765 14.9556 19.4758 15.2751 19.9193 15.2258C20.3626 15.1766 20.682 14.7772 20.6328 14.3339L19.9848 8.50164C19.8484 7.27452 18.8112 6.34615 17.5765 6.34615H15.7916V5.53846C15.7916 3.30808 13.9835 1.5 11.7531 1.5ZM14.1762 6.34615V5.53846C14.1762 4.20024 13.0914 3.11538 11.7531 3.11538C10.4149 3.11538 9.33005 4.20024 9.33005 5.53846V6.34615H14.1762Z" fill="#292929"/>
<path fill-rule="evenodd" clip-rule="evenodd" d="M19.0228 16.8461C19.0228 16.4001 18.6612 16.0385 18.2151 16.0385C17.769 16.0385 17.4074 16.4001 17.4074 16.8461V18.4615H15.7921C15.346 18.4615 14.9844 18.8231 14.9844 19.2692C14.9844 19.7153 15.346 20.0769 15.7921 20.0769H17.4074V21.6923C17.4074 22.1384 17.769 22.5 18.2151 22.5C18.6612 22.5 19.0228 22.1384 19.0228 21.6923V20.0769H20.6382C21.0843 20.0769 21.4459 19.7153 21.4459 19.2692C21.4459 18.8231 21.0843 18.4615 20.6382 18.4615H19.0228V16.8461Z" fill="#F91F3E"/>
</svg>
