<svg width="24" height="24" viewBox="0 0 24 24" fill="none" xmlns="http://www.w3.org/2000/svg">
<g clip-path="url(#clip0_4005_21)">
<path d="M23.087 5.54547L12.489 0.175607L12.4847 0.173404C12.0127 -0.0615334 11.4521 -0.0562834 10.9846 0.187467C10.9478 0.203029 0.919547 5.5255 0.88575 5.54725C0.339375 5.83328 0 6.39381 0 7.01073V16.9895C0 17.6065 0.339375 18.1669 0.88575 18.453L10.98 23.8105L10.9846 23.8128C11.223 23.9372 11.4857 23.9995 11.7485 23.9995C12.0009 23.9995 12.2535 23.942 12.4847 23.8269L23.087 18.4548C23.6503 18.1731 24 17.6072 24 16.9773V7.02297C24 6.39301 23.6502 5.82714 23.087 5.54547ZM11.6361 1.43312C11.705 1.39778 11.7872 1.39708 11.8567 1.43115L21.7768 6.45751L17.9159 8.37967L8.21756 3.24747L11.6361 1.43312ZM11.0355 22.2485L1.54266 17.2102L1.53811 17.2078C1.4565 17.1652 1.40573 17.0816 1.40573 16.9896V7.64509L11.0355 12.6665V22.2485ZM11.7458 11.4515L2.169 6.45765L6.717 4.04392L16.3674 9.15072L11.7458 11.4515ZM22.5942 16.9774C22.5942 17.0713 22.5419 17.1558 22.4577 17.1977L12.4413 22.2729V12.6756L17.0531 10.3796V12.7869C17.0531 13.175 17.3678 13.4897 17.756 13.4897C18.1442 13.4897 18.4589 13.175 18.4589 12.7869V9.67975L22.5942 7.621V16.9774Z" fill="#292929"/>
<path d="M8.49714 13.8009C8.30073 13.466 7.87004 13.3539 7.53521 13.5503L5.35848 14.8274L4.9014 13.9993C4.71381 13.6594 4.28617 13.5359 3.94637 13.7235C3.60653 13.9111 3.48306 14.3387 3.67065 14.6786L4.47639 16.1384C4.47826 16.1418 4.48042 16.145 4.48234 16.1483C4.48346 16.1504 4.48435 16.1524 4.48553 16.1544C4.4882 16.159 4.4912 16.1633 4.49396 16.1678C4.49814 16.1746 4.50235 16.1814 4.50676 16.188C4.51121 16.1947 4.51581 16.2012 4.52045 16.2077C4.52514 16.2142 4.52982 16.2208 4.5347 16.2272C4.53953 16.2335 4.54454 16.2396 4.54951 16.2457C4.55457 16.2518 4.55959 16.2579 4.56479 16.2638C4.57004 16.2698 4.57543 16.2755 4.58087 16.2812C4.58617 16.2869 4.59146 16.2925 4.59695 16.298C4.60267 16.3036 4.60857 16.3091 4.61443 16.3145C4.61992 16.3196 4.62535 16.3247 4.63093 16.3296C4.63717 16.335 4.64364 16.3402 4.65006 16.3454C4.65559 16.3498 4.66107 16.3544 4.66674 16.3587C4.67349 16.3638 4.68039 16.3686 4.68728 16.3734C4.69295 16.3774 4.69853 16.3814 4.70429 16.3852C4.71142 16.3899 4.71873 16.3943 4.72604 16.3988C4.73181 16.4023 4.73753 16.4059 4.74339 16.4092C4.75089 16.4135 4.75857 16.4174 4.76621 16.4214C4.77207 16.4245 4.77789 16.4277 4.78384 16.4306C4.79162 16.4344 4.79959 16.4378 4.80751 16.4413C4.81356 16.444 4.81951 16.4468 4.8256 16.4493C4.83348 16.4525 4.84154 16.4553 4.84951 16.4583C4.85584 16.4606 4.86207 16.4631 4.86845 16.4652C4.87637 16.4679 4.88443 16.4701 4.8924 16.4725C4.89896 16.4744 4.90548 16.4766 4.91214 16.4783C4.92001 16.4804 4.92798 16.482 4.9359 16.4838C4.94279 16.4854 4.94968 16.4872 4.95662 16.4886C4.96417 16.4901 4.97181 16.4911 4.9794 16.4924C4.98685 16.4936 4.99421 16.495 5.00171 16.496C5.00889 16.4969 5.01606 16.4974 5.02328 16.4981C5.03124 16.4989 5.03921 16.4999 5.04718 16.5004C5.05351 16.5008 5.05984 16.5008 5.06617 16.501C5.07498 16.5014 5.08374 16.5019 5.09256 16.5019C5.10742 16.5019 5.12228 16.5014 5.13714 16.5005C5.14093 16.5002 5.14473 16.4997 5.14853 16.4994C5.15945 16.4985 5.17037 16.4976 5.18129 16.4962C5.18692 16.4955 5.19249 16.4944 5.19807 16.4936C5.20717 16.4922 5.21621 16.4909 5.22526 16.4891C5.23173 16.4879 5.2382 16.4863 5.24467 16.4848C5.25278 16.483 5.26089 16.4812 5.26895 16.4791C5.27593 16.4773 5.28282 16.4752 5.28976 16.4731C5.29731 16.4709 5.30481 16.4688 5.31231 16.4663C5.31943 16.4639 5.32646 16.4613 5.33354 16.4587C5.34081 16.456 5.34807 16.4534 5.35529 16.4504C5.36237 16.4476 5.36935 16.4444 5.37639 16.4414C5.38351 16.4382 5.39068 16.435 5.39776 16.4316C5.4046 16.4282 5.41135 16.4247 5.4181 16.4212C5.4226 16.4188 5.4272 16.4167 5.43165 16.4142C5.43353 16.4132 5.43521 16.4119 5.43714 16.4108C5.44065 16.4089 5.44421 16.4072 5.44768 16.4051L8.24682 14.7629C8.58137 14.5664 8.69359 14.1357 8.49714 13.8009Z" fill="#F91F3E"/>
</g>
<defs>
<clipPath id="clip0_4005_21">
<rect width="24" height="24" fill="white"/>
</clipPath>
</defs>
</svg>
