<svg width="24" height="24" viewBox="0 0 24 24" fill="none" xmlns="http://www.w3.org/2000/svg">
<path d="M9.00024 11V6C9.00024 5.20435 9.31631 4.44129 9.87892 3.87868C10.4415 3.31607 11.2046 3 12.0002 3C12.7959 3 13.559 3.31607 14.1216 3.87868C14.6842 4.44129 15.0002 5.20435 15.0002 6V11M6.33129 8H17.6703C17.9587 7.99997 18.2436 8.06229 18.5057 8.1827C18.7677 8.30311 19.0006 8.47876 19.1883 8.6976C19.3761 8.91645 19.5144 9.17331 19.5936 9.45059C19.6728 9.72786 19.6911 10.019 19.6473 10.304L18.3923 18.456C18.2833 19.1644 17.9243 19.8105 17.3803 20.2771C16.8362 20.7438 16.1431 21.0002 15.4263 21H8.57429C7.85769 21 7.16477 20.7434 6.62092 20.2768C6.07707 19.8102 5.71822 19.1643 5.60929 18.456L4.35429 10.304C4.31046 10.019 4.32878 9.72786 4.408 9.45059C4.48722 9.17331 4.62545 8.91645 4.81324 8.6976C5.00102 8.47876 5.23391 8.30311 5.49594 8.1827C5.75796 8.06229 6.04293 7.99997 6.33129 8Z" stroke="white" stroke-width="2" stroke-linecap="round" stroke-linejoin="round"/>
</svg>
