<svg width="16" height="16" viewBox="0 0 16 16" fill="none" xmlns="http://www.w3.org/2000/svg">
<g clip-path="url(#clip0_2101_22125)">
<path d="M15.5625 13.9688H0.5C0.209875 14.0625 0 14.2724 0 14.5312V15.5312C0 15.7901 0.209875 16 0.46875 16H15.5312C15.7901 16 16 15.7901 16 15.5312V14.5312C16 14.2724 15.7901 14.0625 15.5625 13.9688Z" fill="black"/>
<path d="M15.7109 3.16079L8.17966 0.0357891C8.06462 -0.0119297 7.93538 -0.0119297 7.82034 0.0357891L0.289094 3.16079C0.114063 3.23338 0 3.40426 0 3.59373V4.53123C0 4.7901 0.209875 4.99998 0.46875 4.99998H15.5312C15.7901 4.99998 16 4.7901 16 4.53123V3.59373C16 3.40426 15.8859 3.23338 15.7109 3.16079ZM10.8125 3.59373H5.1875C4.92862 3.59373 4.71875 3.38385 4.71875 3.12498C4.71875 2.8661 4.92862 2.65623 5.1875 2.65623H10.8125C11.0714 2.65623 11.2812 2.8661 11.2812 3.12498C11.2812 3.38385 11.0714 3.59373 10.8125 3.59373Z" fill="black"/>
<path d="M0.890625 12.1875V13.125H4.48438V12.1875C4.48438 11.9286 4.2745 11.7188 4.01562 11.7188H1.35938C1.1005 11.7188 0.890625 11.9286 0.890625 12.1875Z" fill="black"/>
<path d="M1.51562 5.9375H3.85938V10.7812H1.51562V5.9375Z" fill="black"/>
<path d="M12.1406 5.9375H14.4844V10.7812H12.1406V5.9375Z" fill="black"/>
<path d="M11.5156 12.1875V13.125H15.1094V12.1875C15.1094 11.9286 14.8995 11.7188 14.6406 11.7188H11.9844C11.7255 11.7188 11.5156 11.9286 11.5156 12.1875Z" fill="black"/>
<path d="M8 10.9375C7.74153 10.9375 7.53125 10.7272 7.53125 10.4688C7.53125 10.2099 7.32138 10 7.0625 10C6.80362 10 6.59375 10.2099 6.59375 10.4688C6.59375 11.0798 6.98566 11.6009 7.53125 11.7944V12.0312C7.53125 12.2901 7.74112 12.5 8 12.5C8.25888 12.5 8.46875 12.2901 8.46875 12.0312V11.7944C9.01434 11.6009 9.40625 11.0798 9.40625 10.4688C9.40625 9.69334 8.77541 9.0625 8 9.0625C7.74153 9.0625 7.53125 8.85222 7.53125 8.59375C7.53125 8.33528 7.74153 8.125 8 8.125C8.25847 8.125 8.46875 8.33528 8.46875 8.59375C8.46875 8.85263 8.67862 9.0625 8.9375 9.0625C9.19638 9.0625 9.40625 8.85263 9.40625 8.59375C9.40625 7.98266 9.01434 7.46163 8.46875 7.26813V7.03125C8.46875 6.77237 8.25888 6.5625 8 6.5625C7.74112 6.5625 7.53125 6.77237 7.53125 7.03125V7.26813C6.98566 7.46163 6.59375 7.98266 6.59375 8.59375C6.59375 9.36916 7.22459 10 8 10C8.25847 10 8.46875 10.2103 8.46875 10.4688C8.46875 10.7272 8.25847 10.9375 8 10.9375Z" fill="black"/>
</g>
<defs>
<clipPath id="clip0_2101_22125">
<rect width="16" height="16" fill="white"/>
</clipPath>
</defs>
</svg>
