<svg width="16" height="16" viewBox="0 0 16 16" fill="none" xmlns="http://www.w3.org/2000/svg">
<path d="M1.65888 4.38138C1.57573 4.59957 1.73687 4.83342 1.97036 4.83342H7.1646C7.34867 4.83342 7.49794 4.68418 7.49794 4.50008V1.66732C7.49794 1.48322 7.34867 1.33398 7.1646 1.33398H4.54284C3.50554 1.33398 2.57598 1.97456 2.20666 2.94389L1.65888 4.38138Z" fill="black"/>
<path d="M7.10156 9.05966C7.10156 8.80452 7.30836 8.59766 7.56356 8.59766C7.8187 8.59766 8.02556 8.80452 8.02556 9.05966V10.44C8.02556 10.6951 7.8187 10.902 7.56356 10.902C7.30836 10.902 7.10156 10.6951 7.10156 10.44V9.05966Z" fill="black"/>
<path d="M11.1458 8.59766C10.9617 8.59766 10.8125 8.74692 10.8125 8.93099V10.5687C10.8125 10.7527 10.9617 10.902 11.1458 10.902H11.4032C11.5873 10.902 11.7365 10.7527 11.7365 10.5687V8.93099C11.7365 8.74692 11.5873 8.59766 11.4032 8.59766H11.1458Z" fill="black"/>
<path fill-rule="evenodd" clip-rule="evenodd" d="M1.66536 5.83398C1.48127 5.83398 1.33203 5.98322 1.33203 6.16732V12.1673C1.33203 13.5481 2.45132 14.6673 3.83203 14.6673H12.1654C13.5461 14.6673 14.6654 13.5481 14.6654 12.1673V6.16732C14.6654 5.98322 14.5161 5.83398 14.3321 5.83398H1.66536ZM3.25846 8.89838C3.25846 8.18045 3.84049 7.59838 4.55846 7.59838H4.99758C5.27372 7.59838 5.49759 7.82225 5.49759 8.09838C5.49759 8.37452 5.27372 8.59838 4.99758 8.59838H4.55846C4.39278 8.59838 4.25846 8.73272 4.25846 8.89838V10.6027C4.25846 10.7684 4.39278 10.9027 4.55846 10.9027H4.99758C5.27372 10.9027 5.49759 11.1266 5.49759 11.4027C5.49759 11.6789 5.27372 11.9027 4.99758 11.9027H4.55846C3.84049 11.9027 3.25846 11.3207 3.25846 10.6027V8.89838ZM7.56098 7.59838C6.75352 7.59838 6.09896 8.25298 6.09896 9.06038V10.4407C6.09896 11.2481 6.75352 11.9027 7.56098 11.9027C8.36845 11.9027 9.02298 11.2481 9.02298 10.4407V9.06038C9.02298 8.25298 8.36845 7.59838 7.56098 7.59838ZM9.81478 8.09838C9.81478 7.82225 10.0387 7.59838 10.3148 7.59838H11.4055C12.1419 7.59838 12.7388 8.19532 12.7388 8.93172V10.5694C12.7388 11.3058 12.1419 11.9027 11.4055 11.9027H10.3148C10.0387 11.9027 9.81478 11.6789 9.81478 11.4027V8.09838Z" fill="black"/>
<path d="M14.0275 4.83342C14.261 4.83342 14.4221 4.59957 14.339 4.38138L13.7913 2.94392C13.4219 1.97459 12.4923 1.33398 11.4551 1.33398H8.83333C8.6492 1.33398 8.5 1.48322 8.5 1.66732V4.50008C8.5 4.68418 8.6492 4.83342 8.83333 4.83342H14.0275Z" fill="black"/>
</svg>
