<svg width="12" height="12" viewBox="0 0 12 12" fill="none" xmlns="http://www.w3.org/2000/svg">
<g clip-path="url(#clip0_4108_2)">
<path d="M9.67223 8.13412C9.62116 8.07903 9.54976 8.04728 9.47464 8.0463H7.64593V3.63913C7.64593 3.47454 7.60935 3.29166 7.46308 3.29166H4.53714C4.3516 3.31339 4.20262 3.45491 4.1714 3.63913V8.0463H2.52558C2.37409 8.0483 2.25291 8.17269 2.25491 8.32419C2.25589 8.3993 2.28763 8.47071 2.34273 8.52177L5.81726 11.9232C5.91621 12.0242 6.07831 12.0258 6.17929 11.9269C6.18055 11.9257 6.18178 11.9244 6.183 11.9232L9.65753 8.52177C9.76863 8.4188 9.77521 8.24526 9.67223 8.13412Z" fill="#F91F3E"/>
<path d="M4.53701 2.74306H7.46295C7.61444 2.74306 7.73726 2.62023 7.73726 2.46874C7.73726 2.31725 7.61444 2.19443 7.46295 2.19443H4.53701C4.38552 2.19443 4.2627 2.31725 4.2627 2.46874C4.2627 2.62023 4.38552 2.74306 4.53701 2.74306Z" fill="#F91F3E"/>
<path d="M4.53701 1.64583H7.46295C7.61444 1.64583 7.73726 1.523 7.73726 1.37151C7.73726 1.22002 7.61444 1.0972 7.46295 1.0972H4.53701C4.38552 1.0972 4.2627 1.22002 4.2627 1.37151C4.2627 1.523 4.38552 1.64583 4.53701 1.64583Z" fill="#F91F3E"/>
<path d="M4.53701 0.5486H7.46295C7.61444 0.5486 7.73726 0.425776 7.73726 0.274285C7.73726 0.122793 7.61444 -3.05176e-05 7.46295 -3.05176e-05H4.53701C4.38552 -3.05176e-05 4.2627 0.122793 4.2627 0.274285C4.2627 0.425811 4.38552 0.5486 4.53701 0.5486Z" fill="#F91F3E"/>
</g>
<defs>
<clipPath id="clip0_4108_2">
<rect width="12" height="12" fill="white"/>
</clipPath>
</defs>
</svg>
