<svg width="24" height="24" viewBox="0 0 24 24" fill="none" xmlns="http://www.w3.org/2000/svg">
<g clip-path="url(#clip0_4011_136)">
<path fill-rule="evenodd" clip-rule="evenodd" d="M15.1163 7.992L13.9868 7.99275C13.101 7.99275 12.9293 8.4135 12.9293 9.03075V10.3928H15.042L14.7667 12.5265H12.9293V18H10.7265V12.5265H8.8845V10.3928H10.7265V8.82C10.7265 6.99375 11.8417 6 13.47 6C14.25 6 14.9205 6.05775 15.1163 6.084V7.992ZM12 0C5.373 0 0 5.37225 0 12C0 18.627 5.373 24 12 24C18.6277 24 24 18.627 24 12C24 5.37225 18.6277 0 12 0Z" fill="#3B5998"/>
</g>
<defs>
<clipPath id="clip0_4011_136">
<rect width="24" height="24" fill="white"/>
</clipPath>
</defs>
</svg>
