<svg width="24" height="24" viewBox="0 0 24 24" fill="none" xmlns="http://www.w3.org/2000/svg">
<path d="M17.7184 3.04907C16.681 2.19963 15.4679 1.59102 14.1668 1.26712C12.8657 0.943229 11.509 0.91213 10.1944 1.17607C8.5041 1.52261 6.94907 2.34772 5.71451 3.55311C4.47995 4.75851 3.61791 6.29338 3.23106 7.97489C2.84422 9.65639 2.94889 11.4137 3.5326 13.0374C4.11631 14.6611 5.15446 16.0827 6.52337 17.1331C8.0863 18.277 9.41702 19.7082 10.4444 21.3501L11.1444 22.5141C11.2333 22.6619 11.3589 22.7843 11.5091 22.8692C11.6593 22.9541 11.8289 22.9988 12.0014 22.9988C12.1739 22.9988 12.3435 22.9541 12.4937 22.8692C12.6438 22.7843 12.7695 22.6619 12.8584 22.5141L13.5294 21.3961C14.424 19.8234 15.6438 18.4598 17.1074 17.3961C18.255 16.6065 19.2034 15.561 19.8778 14.3422C20.5522 13.1233 20.9342 11.7645 20.9935 10.3727C21.0528 8.98101 20.788 7.59453 20.2198 6.3227C19.6516 5.05087 18.7956 3.92847 17.7194 3.04407L17.7184 3.04907ZM12.0004 14.0001C11.2092 14.0001 10.4359 13.7655 9.77809 13.3259C9.1203 12.8864 8.6076 12.2617 8.30485 11.5308C8.0021 10.7999 7.92289 9.99563 8.07723 9.21971C8.23157 8.44378 8.61254 7.73105 9.17195 7.17164C9.73136 6.61223 10.4441 6.23127 11.22 6.07693C11.9959 5.92259 12.8002 6.0018 13.5311 6.30455C14.262 6.6073 14.8867 7.11999 15.3263 7.77779C15.7658 8.43558 16.0004 9.20894 16.0004 10.0001C16.0004 11.0609 15.5789 12.0784 14.8288 12.8285C14.0787 13.5786 13.0612 14.0001 12.0004 14.0001Z" fill="#292929"/>
</svg>
