<svg width="40" height="40" viewBox="0 0 40 40" fill="none" xmlns="http://www.w3.org/2000/svg">
<path fill-rule="evenodd" clip-rule="evenodd" d="M11.6771 1.20127C12.0218 0.470495 12.7897 0 13.6406 0H30.61C32.2055 0 33.2457 1.58167 32.531 2.92708L27.7041 12.0127H34.8476C36.7621 12.0127 37.7194 14.1909 36.3665 15.4643L10.939 39.3955C9.33499 40.9051 6.66311 39.3514 7.38214 37.3273L12.8025 22.0232H5.14848C4.79055 22.0232 4.4383 21.939 4.12372 21.7783C3.80913 21.6176 3.54218 21.3855 3.34712 21.1031C3.15205 20.8207 3.03505 20.4968 3.00673 20.161C2.97842 19.8252 3.0397 19.4881 3.18499 19.1802L11.6771 1.20127Z" fill="#FFB200"/>
</svg>
