<svg width="20" height="20" viewBox="0 0 20 20" fill="none" xmlns="http://www.w3.org/2000/svg">
<g clip-path="url(#clip0_2001_1321)">
<path d="M16.4432 9.99631V19.4138C16.4432 19.7421 16.1854 20 15.8571 20H4.13401C3.80572 20 3.54785 19.7421 3.54785 19.4138V10.9107C3.54785 10.6997 3.66504 10.5121 3.84093 10.4066L5.42351 9.49222C5.51733 9.43356 5.62284 9.41016 5.71658 9.41016H8.23708L9.99554 10.9107L11.754 9.41016H15.8571C16.1854 9.41016 16.4432 9.66802 16.4432 9.99631Z" fill="#E63950"/>
<path d="M16.4428 9.99631V19.4138C16.4428 19.7421 16.1849 20 15.8567 20H9.99512V10.9107L11.7536 9.41016H15.8567C16.1849 9.41016 16.4428 9.66802 16.4428 9.99631Z" fill="#D0004F"/>
<path d="M10.3937 1.17275C10.2881 0.98514 10.1474 0.809333 9.99503 0.680301C9.71368 0.387224 9.36203 0.187971 8.97513 0.0825025C8.36549 -0.0816206 7.73248 0.000440902 7.19318 0.316925C6.4429 0.750757 5.99747 1.55957 6.02087 2.42712C6.0326 2.54435 6.09121 4.28718 6.09121 4.28718C5.96226 4.21684 4.62583 3.38446 4.62583 3.38446C4.47343 3.31413 3.41839 2.51696 2.11713 3.27892C1.57783 3.59548 1.19096 4.09953 1.0268 4.69745C0.862718 5.30709 0.944819 5.94009 1.26126 6.4794C1.90603 7.60477 3.34801 7.97991 4.4617 7.33514L5.97085 6.4638L3.86844 6.32363C3.69165 6.42453 3.4924 6.47764 3.2908 6.47764C2.87178 6.47764 2.48371 6.25498 2.2782 5.89605C2.11451 5.61728 2.07555 5.31162 2.15855 5.00252C2.24041 4.70542 2.43674 4.45072 2.71035 4.29042C2.90156 4.17823 3.08358 4.12384 3.26618 4.12384C3.56958 4.12384 3.82084 4.2721 3.95538 4.35166L4.02979 4.39402C4.21353 4.50851 5.40529 5.24804 5.52893 5.31561L5.57301 5.33964L5.56305 5.34538L5.57926 5.34609L6.98603 6.1667L7.25957 4.36916L7.26633 4.34787L7.26282 4.24693C7.26282 4.24693 7.19928 2.42974 7.18669 2.30723C7.1804 1.95577 7.40591 1.5482 7.77972 1.33183C7.96233 1.2248 8.15467 1.17212 8.35728 1.17212C8.46146 1.17212 8.56677 1.18643 8.67095 1.21448C8.85926 1.26599 9.02241 1.35989 9.14949 1.49267L9.23765 1.57567C9.27086 1.60314 9.32522 1.66441 9.37102 1.74624C9.65151 2.22021 9.56507 2.84907 9.17926 3.22229C9.11573 3.28009 9.03214 3.34308 8.95602 3.38657L8.89775 3.42022L8.74117 4.86423L9.53772 4.40433C9.70184 4.31055 9.85428 4.19332 9.99492 4.0644C10.7453 3.33761 10.9563 2.12232 10.3937 1.17275Z" fill="#FED843"/>
<path d="M8.23633 9.41016V15.8969C8.23633 16.1314 8.37701 16.3424 8.59974 16.4361C8.81076 16.53 9.06871 16.4831 9.23275 16.3072L9.99479 15.5569L10.7568 16.3072C10.9209 16.4831 11.1789 16.5299 11.3898 16.4361C11.6126 16.3424 11.7533 16.1314 11.7533 15.8969V9.41016H8.23633Z" fill="#FED843"/>
<path d="M19.4122 7.0655H18.8261V6.47934C18.8261 6.15536 18.5639 5.89319 18.2399 5.89319C17.9159 5.89319 17.6538 6.15536 17.6538 6.47934V7.0655H17.0676C16.7436 7.0655 16.4814 7.32766 16.4814 7.65165C16.4814 7.97564 16.7436 8.2378 17.0676 8.2378H17.6538V8.82396C17.6538 9.14794 17.9159 9.41011 18.2399 9.41011C18.5639 9.41011 18.8261 9.14794 18.8261 8.82396V8.2378H19.4122C19.7362 8.2378 19.9984 7.97564 19.9984 7.65165C19.9984 7.32766 19.7362 7.0655 19.4122 7.0655Z" fill="#FFB64C"/>
<path d="M17.0285 4.72089C17.3523 4.72089 17.6147 4.45846 17.6147 4.13474C17.6147 3.81101 17.3523 3.54858 17.0285 3.54858C16.7048 3.54858 16.4424 3.81101 16.4424 4.13474C16.4424 4.45846 16.7048 4.72089 17.0285 4.72089Z" fill="#FFB64C"/>
<path d="M14.6848 8.23786C15.0085 8.23786 15.2709 7.97543 15.2709 7.65171C15.2709 7.32798 15.0085 7.06555 14.6848 7.06555C14.3611 7.06555 14.0986 7.32798 14.0986 7.65171C14.0986 7.97543 14.3611 8.23786 14.6848 8.23786Z" fill="#FFB64C"/>
<path d="M9.99512 9.41016H11.7536V15.8969C11.7536 16.1314 11.6129 16.3424 11.3902 16.4361C11.1791 16.53 10.9212 16.4831 10.7572 16.3072L9.99512 15.5569V9.41016Z" fill="#FFB64C"/>
<path d="M9.99512 4.0644V0.680298C10.1475 0.809291 10.2882 0.985098 10.3937 1.17271C10.9564 2.12228 10.7454 3.33761 9.99512 4.0644Z" fill="#FFB64C"/>
<path d="M15.0712 4.60369L13.3127 1.55569C13.1486 1.27434 12.7852 1.18055 12.5039 1.34467L9.99512 2.79834L9.65925 2.99208L2.99355 6.83807L0.323581 8.37856C0.0422273 8.53096 -0.0906343 8.89438 0.0734888 9.17573L1.87103 12.2237C2.03515 12.5051 2.38684 12.5989 2.6682 12.4347L9.99512 8.20271L14.8485 5.40086C15.1298 5.23682 15.2237 4.88512 15.0712 4.60369Z" fill="#FF641A"/>
<path d="M14.8485 5.40086L9.99512 8.20268V2.79834L12.5039 1.34467C12.7852 1.18055 13.1486 1.27434 13.3127 1.55569L15.0712 4.60365C15.2236 4.88512 15.1298 5.23678 14.8485 5.40086Z" fill="#E63950"/>
</g>
<defs>
<clipPath id="clip0_2001_1321">
<rect width="20" height="20" fill="white"/>
</clipPath>
</defs>
</svg>
