<svg width="16" height="16" viewBox="0 0 16 16" fill="none" xmlns="http://www.w3.org/2000/svg">
<g clip-path="url(#clip0_4057_6)">
<path d="M15.166 15.8333H10.066C9.69935 15.8333 9.39935 15.5333 9.39935 15.1667V12C9.39935 11.2 8.76602 10.5667 7.96602 10.5667C7.16602 10.5667 6.53268 11.2 6.53268 12V15.1667C6.53268 15.5333 6.23268 15.8333 5.86602 15.8333H0.832682C0.466016 15.8333 0.166016 15.5333 0.166016 15.1667V6.63332C0.166016 6.03332 0.466016 5.46665 0.932682 5.13332L7.63268 0.299988C7.86602 0.133321 8.16602 0.133321 8.39935 0.299988L15.0993 5.13332C15.566 5.46665 15.866 6.03332 15.866 6.63332V15.2C15.8327 15.5333 15.5327 15.8333 15.166 15.8333ZM10.7327 14.5333H14.5327V6.63332C14.5327 6.46665 14.4327 6.29999 14.2993 6.19999L7.99935 1.63332L1.69935 6.16665C1.56602 6.26665 1.46602 6.43332 1.46602 6.59999V14.5H5.26602V12C5.26602 10.5 6.49935 9.26665 7.99935 9.26665C9.49935 9.26665 10.7327 10.5 10.7327 12V14.5333Z" fill="#BCBCBC"/>
</g>
<defs>
<clipPath id="clip0_4057_6">
<rect width="16" height="16" fill="white"/>
</clipPath>
</defs>
</svg>
