<svg width="24" height="24" viewBox="0 0 24 24" fill="none" xmlns="http://www.w3.org/2000/svg">
<g clip-path="url(#clip0_4011_148)">
<path d="M24 12C24 5.37258 18.6274 0 12 0C5.37258 0 0 5.37258 0 12C0 18.6274 5.37258 24 12 24C18.6274 24 24 18.6274 24 12Z" fill="url(#paint0_linear_4011_148)"/>
<path opacity="0.1" d="M21.0314 4.10526C19.282 7.31684 16.8078 10.6295 13.7162 13.721C10.6246 16.8126 7.31197 19.2821 4.10513 21.0316C3.90408 20.8568 3.70881 20.6747 3.51934 20.4853C2.37406 19.3782 1.46064 18.0542 0.832344 16.5905C0.204046 15.1268 -0.126556 13.5527 -0.140186 11.9599C-0.153815 10.3671 0.1498 8.78748 0.752958 7.31323C1.35611 5.83898 2.24674 4.49956 3.37291 3.37308C4.49908 2.2466 5.83824 1.3556 7.31232 0.752029C8.7864 0.14846 10.3659 -0.155596 11.9587 -0.142411C13.5515 -0.129226 15.1258 0.200937 16.5896 0.828826C18.0535 1.45671 19.3778 2.36976 20.4851 3.51473C20.6746 3.70421 20.8567 3.90105 21.0314 4.10526Z" fill="white"/>
<path d="M14.8415 5.68433H9.15728C8.236 5.68433 7.35245 6.0503 6.70101 6.70174C6.04957 7.35319 5.68359 8.23673 5.68359 9.15801V14.8422C5.68359 15.7635 6.04957 16.647 6.70101 17.2985C7.35245 17.9499 8.236 18.3159 9.15728 18.3159H14.8415C15.7628 18.3159 16.6463 17.9499 17.2978 17.2985C17.9492 16.647 18.3152 15.7635 18.3152 14.8422V9.15801C18.3152 8.23673 17.9492 7.35319 17.2978 6.70174C16.6463 6.0503 15.7628 5.68433 14.8415 5.68433ZM17.2099 14.3433C17.2099 15.1037 16.9078 15.8331 16.3701 16.3708C15.8323 16.9085 15.103 17.2106 14.3425 17.2106H9.65623C8.89575 17.2106 8.16643 16.9085 7.62869 16.3708C7.09095 15.8331 6.78886 15.1037 6.78886 14.3433V9.65696C6.78886 8.89648 7.09095 8.16716 7.62869 7.62942C8.16643 7.09169 8.89575 6.78959 9.65623 6.78959H14.3425C15.103 6.78959 15.8323 7.09169 16.3701 7.62942C16.9078 8.16716 17.2099 8.89648 17.2099 9.65696V14.3433Z" fill="white"/>
<path d="M14.3029 9.72001L14.2729 9.69001L14.2477 9.66475C13.6506 9.06981 12.8421 8.73593 11.9992 8.73633C11.5736 8.73922 11.1527 8.82595 10.7606 8.99155C10.3685 9.15715 10.0129 9.39839 9.7141 9.70147C9.41527 10.0046 9.17908 10.3635 9.01903 10.7579C8.85899 11.1523 8.77822 11.5744 8.78134 12C8.78069 12.8638 9.12118 13.6929 9.72871 14.3069C10.0263 14.6081 10.3809 14.847 10.7718 15.0096C11.1627 15.1723 11.5821 15.2554 12.0055 15.2542C12.6407 15.2409 13.2582 15.0431 13.7828 14.6848C14.3074 14.3266 14.7164 13.8234 14.96 13.2367C15.2035 12.65 15.2711 12.0051 15.1544 11.3807C15.0377 10.7562 14.7419 10.1792 14.3029 9.72001ZM11.9992 14.1411C11.5745 14.147 11.1577 14.0265 10.8017 13.7949C10.4456 13.5633 10.1666 13.231 9.9999 12.8404C9.83324 12.4497 9.78653 12.0183 9.86573 11.601C9.94492 11.1837 10.1464 10.7994 10.4446 10.497C10.7428 10.1945 11.1243 9.98763 11.5404 9.90256C11.9565 9.81749 12.3885 9.8581 12.7815 10.0192C13.1745 10.1804 13.5106 10.4547 13.7473 10.8074C13.9839 11.1602 14.1102 11.5753 14.1103 12C14.1124 12.2792 14.0594 12.5561 13.9544 12.8149C13.8494 13.0736 13.6945 13.3092 13.4984 13.508C13.3024 13.7068 13.0691 13.8651 12.8118 13.9737C12.5546 14.0823 12.2785 14.1392 11.9992 14.1411Z" fill="white"/>
<path d="M16.1724 8.58643C16.1732 8.68775 16.1541 8.78824 16.116 8.88214C16.078 8.97605 16.0218 9.06153 15.9506 9.13369C15.8795 9.20584 15.7948 9.26326 15.7015 9.30266C15.6081 9.34205 15.5079 9.36265 15.4066 9.36327C15.3061 9.36322 15.2067 9.34324 15.114 9.30449C15.0213 9.26573 14.9372 9.20896 14.8666 9.13748C14.7596 9.02895 14.6869 8.89141 14.6573 8.74191C14.6278 8.59242 14.6428 8.43754 14.7005 8.29649C14.7581 8.15544 14.8559 8.03441 14.9817 7.94842C15.1075 7.86243 15.2558 7.81525 15.4082 7.81274C15.5865 7.81271 15.7592 7.8753 15.8961 7.98959L15.9119 8.00538C15.9373 8.0261 15.9606 8.04938 15.9813 8.07485L15.9987 8.0938C16.1117 8.23304 16.1731 8.40709 16.1724 8.58643Z" fill="white"/>
</g>
<defs>
<linearGradient id="paint0_linear_4011_148" x1="3.51474" y1="3.51474" x2="20.4853" y2="20.4853" gradientUnits="userSpaceOnUse">
<stop stop-color="#FAE100"/>
<stop offset="0.15" stop-color="#FCB720"/>
<stop offset="0.3" stop-color="#FF7950"/>
<stop offset="0.5" stop-color="#FF1C74"/>
<stop offset="1" stop-color="#6C1CD1"/>
</linearGradient>
<clipPath id="clip0_4011_148">
<rect width="24" height="24" fill="white"/>
</clipPath>
</defs>
</svg>
