<svg width="24" height="24" viewBox="0 0 24 24" fill="none" xmlns="http://www.w3.org/2000/svg">
<g clip-path="url(#clip0_2006_1218)">
<path d="M12 24C18.6274 24 24 18.6274 24 12C24 5.37258 18.6274 0 12 0C5.37258 0 0 5.37258 0 12C0 18.6274 5.37258 24 12 24Z" fill="#0B69C7"/>
<path d="M9.31598 7.63737C9.31629 7.96166 9.2204 8.27875 9.04043 8.54851C8.86046 8.81828 8.6045 9.02859 8.30496 9.15284C8.00542 9.27708 7.67575 9.30967 7.35768 9.24648C7.03961 9.18329 6.74743 9.02716 6.51812 8.79786C6.28882 8.56855 6.13269 8.27637 6.0695 7.9583C6.00631 7.64023 6.0389 7.31056 6.16315 7.01102C6.28739 6.71148 6.4977 6.45552 6.76747 6.27556C7.03723 6.09559 7.35433 5.99969 7.67861 6C8.11274 6.00042 8.52897 6.17306 8.83595 6.48004C9.14292 6.78701 9.31556 7.20324 9.31598 7.63737Z" fill="white"/>
<path d="M8.54016 9.95898H6.81595C6.59183 9.95898 6.41016 10.1407 6.41016 10.3648V17.5948C6.41016 17.8189 6.59183 18.0006 6.81595 18.0006H8.54016C8.76427 18.0006 8.94595 17.8189 8.94595 17.5948V10.3648C8.94595 10.1407 8.76427 9.95898 8.54016 9.95898Z" fill="white"/>
<path d="M17.9605 14.1267V17.6272C17.9605 17.726 17.9213 17.8208 17.8514 17.8907C17.7815 17.9606 17.6867 17.9998 17.5879 17.9998H15.7374C15.6385 17.9998 15.5438 17.9606 15.4739 17.8907C15.404 17.8208 15.3647 17.726 15.3647 17.6272V14.2356C15.3647 13.7288 15.5116 12.0251 14.0416 12.0251C12.9016 12.0251 12.6695 13.1967 12.6205 13.7225V17.6351C12.6185 17.732 12.5787 17.8243 12.5098 17.8924C12.4408 17.9605 12.348 17.999 12.2511 17.9998H10.4605C10.4115 18.0001 10.363 17.9906 10.3177 17.9719C10.2724 17.9533 10.2312 17.9258 10.1966 17.8912C10.1619 17.8565 10.1345 17.8154 10.1158 17.7701C10.0972 17.7248 10.0877 17.6762 10.0879 17.6272V10.3325C10.0877 10.2834 10.0972 10.2348 10.1158 10.1894C10.1344 10.144 10.1619 10.1027 10.1965 10.068C10.2311 10.0332 10.2722 10.0056 10.3176 9.98678C10.3629 9.96796 10.4115 9.95827 10.4605 9.95827H12.2511C12.3007 9.95743 12.3501 9.96649 12.3962 9.98492C12.4423 10.0033 12.4843 10.0308 12.5198 10.0656C12.5552 10.1004 12.5833 10.142 12.6025 10.1878C12.6217 10.2336 12.6316 10.2828 12.6316 10.3325V10.9641C13.0547 10.3325 13.6832 9.83984 15.0205 9.83984C17.9779 9.83827 17.9605 12.6062 17.9605 14.1267Z" fill="white"/>
</g>
<defs>
<clipPath id="clip0_2006_1218">
<rect width="24" height="24" fill="white"/>
</clipPath>
</defs>
</svg>
