<svg width="80" height="80" viewBox="0 0 80 80" fill="none" xmlns="http://www.w3.org/2000/svg">
<path d="M72.1618 11.76H7.83789V52.5508H72.1618V11.76Z" fill="#FFDE00"/>
<path d="M25.0957 74.5151H54.9045" stroke="#292929" stroke-width="3" stroke-miterlimit="10" stroke-linecap="round" stroke-linejoin="round"/>
<path d="M44.2961 36.3223H30.8828C30.8828 36.3223 37.9845 23.4494 39.1566 22.0116C40.3416 20.5577 41.4637 21.4646 41.5708 22.7471V43.0444" stroke="#292929" stroke-width="3" stroke-miterlimit="10" stroke-linecap="round" stroke-linejoin="round"/>
<path d="M15.6807 25.6729C16.1739 23.1613 18.3875 21.2666 21.0436 21.2666C24.0622 21.2666 26.5093 23.7136 26.5093 26.7322C26.4543 26.9139 26.5832 28.6946 24.1329 32.1955C17.3193 41.9308 16.0377 42.7977 16.53 42.9618H28.2336" stroke="#292929" stroke-width="3" stroke-miterlimit="10" stroke-linecap="round" stroke-linejoin="round"/>
<path d="M52.5684 21.2666H64.3191L54.9849 42.9618" stroke="#292929" stroke-width="3" stroke-miterlimit="10" stroke-linecap="round" stroke-linejoin="round"/>
<path d="M48.6309 32.1555H51.7685" stroke="#292929" stroke-width="3" stroke-miterlimit="10" stroke-linecap="round" stroke-linejoin="round"/>
<path d="M73.7309 61.9642H6.26906C3.66969 61.9642 1.5625 59.857 1.5625 57.2576V10.1913C1.5625 7.59196 3.66969 5.48462 6.26906 5.48462H73.7308C76.3302 5.48462 78.4373 7.59181 78.4373 10.1913V57.2576C78.4375 59.857 76.3303 61.9642 73.7309 61.9642Z" stroke="#292929" stroke-width="3" stroke-miterlimit="10" stroke-linecap="round" stroke-linejoin="round"/>
<path d="M51.7665 74.5152H28.2334L31.3711 61.9641H48.6287L51.7665 74.5152Z" stroke="#292929" stroke-width="3" stroke-miterlimit="10" stroke-linecap="round" stroke-linejoin="round"/>
<path d="M40 58.8264V61.9641" stroke="#292929" stroke-width="3" stroke-miterlimit="10" stroke-linecap="round" stroke-linejoin="round"/>
</svg>
