<svg width="20" height="20" viewBox="0 0 20 20" fill="none" xmlns="http://www.w3.org/2000/svg">
<path d="M2.5 5.83268C2.5 5.39065 2.67559 4.96673 2.98816 4.65417C3.30072 4.34161 3.72464 4.16602 4.16667 4.16602H15.8333C16.2754 4.16602 16.6993 4.34161 17.0118 4.65417C17.3244 4.96673 17.5 5.39065 17.5 5.83268M2.5 5.83268V14.166C2.5 14.608 2.67559 15.032 2.98816 15.3445C3.30072 15.6571 3.72464 15.8327 4.16667 15.8327H15.8333C16.2754 15.8327 16.6993 15.6571 17.0118 15.3445C17.3244 15.032 17.5 14.608 17.5 14.166V5.83268M2.5 5.83268L10 10.8327L17.5 5.83268" stroke="#1A5B2E" stroke-linecap="round" stroke-linejoin="round"/>
</svg>
