<svg width="80" height="80" viewBox="0 0 80 80" fill="none" xmlns="http://www.w3.org/2000/svg">
<path d="M68.335 41.8406V19.5792L37.1289 1.5625L5.92285 19.5792V55.613L37.1289 73.6295L51.8058 65.1559" stroke="#292929" stroke-width="3" stroke-miterlimit="22.9256" stroke-linecap="round" stroke-linejoin="round"/>
<path d="M6.62305 19.9837L37.1285 37.5959L67.8623 19.8518" stroke="#292929" stroke-width="3" stroke-miterlimit="22.9256" stroke-linecap="round" stroke-linejoin="round"/>
<path d="M37.1289 37.5957V72.7873" stroke="#292929" stroke-width="3" stroke-miterlimit="22.9256" stroke-linecap="round" stroke-linejoin="round"/>
<path d="M58.2562 14.3053L27.5225 32.0493V45.096L21.2381 37.4792L16.2305 38.5765V25.53L46.9642 7.78589" stroke="#292929" stroke-width="3" stroke-miterlimit="22.9256" stroke-linecap="round" stroke-linejoin="round"/>
<path d="M53.5154 40.4933L52.6553 37.2832L55.8654 36.4229" stroke="#292929" stroke-width="3" stroke-miterlimit="22.9256" stroke-linecap="round" stroke-linejoin="round"/>
<path d="M54.0117 38.0667L64.4978 44.1207" stroke="#292929" stroke-width="3" stroke-miterlimit="22.9256" stroke-linecap="round" stroke-linejoin="round"/>
<path fill-rule="evenodd" clip-rule="evenodd" d="M48.665 79.9999V49.649L75.6402 34.075V64.4257L48.665 79.9999Z" fill="#FFDE00"/>
<path d="M56.498 66.5689L67.8065 60.0398" stroke="#292929" stroke-width="3" stroke-miterlimit="22.9256" stroke-linecap="round" stroke-linejoin="round"/>
<path d="M56.498 59.2428L62.1523 55.9783" stroke="#292929" stroke-width="3" stroke-miterlimit="22.9256" stroke-linecap="round" stroke-linejoin="round"/>
</svg>
