<svg width="19" height="16" viewBox="0 0 19 16" fill="none" xmlns="http://www.w3.org/2000/svg">
<path fill-rule="evenodd" clip-rule="evenodd" d="M7.99888 0C8.36442 0 8.7105 0.0212677 9.05896 0.0835531C8.63146 0.633589 8.36442 1.32677 8.36442 2.0825V2.22503H8.16083C5.18181 2.22503 2.77457 4.633 2.77457 7.61165C2.77457 10.573 5.18181 12.9794 8.16083 12.9794C8.38596 12.9794 8.61109 12.9573 8.81465 12.939C13.8746 11.8985 15.8139 6.02052 15.8139 5.97979C15.7912 5.91871 13.2618 11.4895 8.7521 12.6123C7.7947 6.93855 12.0784 3.75568 18.8939 1.63366C18.5664 9.12373 15.9145 13.3663 11.2626 15.3047C10.9558 15.4275 10.6516 15.5506 10.3238 15.6524C9.58974 15.8775 8.7934 16 7.99888 16C3.59126 16 0 12.4093 0 8.00001C0 3.59249 3.59126 0 7.99888 0Z" fill="#02AB59"/>
<path fill-rule="evenodd" clip-rule="evenodd" d="M11.4429 0.0262756C12.5661 0.0262756 13.4828 0.945806 13.4828 2.08811C13.4828 3.21125 12.5661 4.12869 11.4429 4.12869C10.2999 4.12869 9.38232 3.21125 9.38232 2.08811C9.38232 0.945806 10.2999 0.0262756 11.4429 0.0262756Z" fill="#02AB59"/>
</svg>
