<svg width="20" height="20" viewBox="0 0 20 20" fill="none" xmlns="http://www.w3.org/2000/svg">
<path d="M1.7733 13.1108C1.39311 10.6395 1.01292 8.16834 0.632733 5.69709C0.548421 5.14927 1.17173 4.77565 1.61511 5.10821C2.79961 5.99658 3.98405 6.8849 5.16855 7.77327C5.55855 8.06577 6.11417 7.97058 6.38455 7.56496L9.34286 3.12746C9.65548 2.65852 10.3445 2.65852 10.6571 3.12746L13.6154 7.56496C13.8858 7.97058 14.4414 8.06571 14.8314 7.77327C16.0159 6.8849 17.2004 5.99658 18.3849 5.10821C18.8282 4.77565 19.4515 5.14927 19.3673 5.69709C18.9871 8.16834 18.6069 10.6395 18.2267 13.1108H1.7733Z" fill="#FFB743"/>
<path d="M17.369 17.2241H2.63125C2.1575 17.2241 1.77344 16.84 1.77344 16.3662V14.4819H18.2269V16.3662C18.2268 16.84 17.8427 17.2241 17.369 17.2241Z" fill="#FFB743"/>
</svg>
