<svg width="20" height="21" viewBox="0 0 20 21" fill="none" xmlns="http://www.w3.org/2000/svg">
<path d="M7.50065 9.66643C7.50065 10.3295 7.76404 10.9654 8.23288 11.4342C8.70172 11.903 9.33761 12.1664 10.0007 12.1664C10.6637 12.1664 11.2996 11.903 11.7684 11.4342C12.2373 10.9654 12.5007 10.3295 12.5007 9.66643C12.5007 9.00338 12.2373 8.3675 11.7684 7.89866C11.2996 7.42982 10.6637 7.16643 10.0007 7.16643C9.33761 7.16643 8.70172 7.42982 8.23288 7.89866C7.76404 8.3675 7.50065 9.00338 7.50065 9.66643Z" stroke="#1A5B2E" stroke-linecap="round" stroke-linejoin="round"/>
<path d="M14.7148 14.3806L11.179 17.9164C10.8665 18.2286 10.4428 18.404 10.0011 18.404C9.55933 18.404 9.13567 18.2286 8.82315 17.9164L5.28649 14.3806C4.35417 13.4482 3.71927 12.2603 3.46206 10.9671C3.20485 9.67395 3.3369 8.33352 3.84149 7.11536C4.34608 5.89721 5.20057 4.85604 6.29689 4.12351C7.39321 3.39098 8.68213 3 10.0007 3C11.3192 3 12.6081 3.39098 13.7044 4.12351C14.8007 4.85604 15.6552 5.89721 16.1598 7.11536C16.6644 8.33352 16.7965 9.67395 16.5392 10.9671C16.282 12.2603 15.6471 13.4482 14.7148 14.3806Z" stroke="#1A5B2E" stroke-linecap="round" stroke-linejoin="round"/>
</svg>
