<svg width="20" height="20" viewBox="0 0 20 20" fill="none" xmlns="http://www.w3.org/2000/svg">
<path d="M18.971 9.59159L9.19093 19.3717C8.35323 20.2094 6.99026 20.2094 6.15257 19.3717L0.628271 13.8474C-0.209424 13.0097 -0.209424 11.6467 0.628271 10.8091L10.4084 1.02897C11.1499 0.287451 12.2391 -0.00180702 13.2508 0.27413L18.0153 1.57354C18.2155 1.62811 18.3718 1.78448 18.4264 1.98464L19.7258 6.74913C20.0018 7.76089 19.7125 8.85007 18.971 9.59159Z" fill="#FF80AA"/>
<path d="M6.15277 19.3717C6.99043 20.2094 8.35344 20.2094 9.19113 19.3717L18.9712 9.59164C19.7128 8.85011 20.002 7.76089 19.7261 6.74917L18.4266 1.98464C18.3994 1.88457 18.3466 1.79542 18.2757 1.72449L3.39062 16.6096L6.15277 19.3717Z" fill="#FF3C7D"/>
<path d="M10.4515 6.88904C10.447 6.88708 10.4427 6.88513 10.4382 6.88329C10.2248 6.79435 9.9815 6.84247 9.81806 7.00591C9.81791 7.00607 9.81775 7.00622 9.8176 7.00638C9.65416 7.17017 9.60642 7.41388 9.69592 7.62724C9.69744 7.63087 9.699 7.63451 9.7006 7.6381L11.2181 11.0225C11.3284 11.2685 11.6173 11.3786 11.8634 11.2683C11.9192 11.2432 11.9681 11.209 12.0089 11.1681C12.148 11.029 12.1945 10.8131 12.1092 10.6229L11.8689 10.0871L12.892 9.06396L13.4252 9.30493C13.6709 9.41599 13.9602 9.30677 14.0712 9.06111C14.1823 8.81536 14.0732 8.52611 13.8274 8.41501L10.4515 6.88904ZM11.4414 9.13361L11.0335 8.22388L11.941 8.63408L11.4414 9.13361Z" fill="#F1F1F4"/>
<path d="M15.2806 6.51083C15.2799 6.5115 15.2792 6.51216 15.2786 6.51279C15.1201 6.67302 14.9224 6.87244 14.7573 7.03806L12.6167 4.89751C12.4261 4.70685 12.1169 4.70685 11.9262 4.89751C11.7355 5.08818 11.7355 5.39736 11.9262 5.58806L14.41 8.07189C14.5782 8.24005 14.8431 8.26259 15.0373 8.12529C15.0665 8.10462 15.0868 8.09025 15.3623 7.8147C15.4959 7.68111 15.6894 7.48623 15.973 7.19951C16.1626 7.00775 16.1608 6.69857 15.9691 6.50896C15.778 6.32001 15.4704 6.32103 15.2806 6.51083Z" fill="#F1F1F4"/>
<path d="M8.43179 9.77336C8.62245 9.5827 8.62245 9.27352 8.43179 9.08282C8.24112 8.89215 7.93194 8.89215 7.74124 9.08282L6.69378 10.1303C6.50312 10.3209 6.50312 10.6301 6.69378 10.8208L9.17972 13.3068C9.37038 13.4974 9.67956 13.4974 9.87026 13.3068L10.9177 12.2593C11.1084 12.0686 11.1084 11.7595 10.9177 11.5688C10.7271 11.3781 10.4179 11.3781 10.2272 11.5688L9.52499 12.2709L8.97257 11.7185L9.59753 11.0936C9.78819 10.9029 9.78823 10.5937 9.59753 10.403C9.40683 10.2123 9.09769 10.2123 8.90698 10.403L8.28202 11.028L7.7296 10.4756L8.43179 9.77336Z" fill="#F1F1F4"/>
<path d="M4.52387 12.3L3.8198 13.004C3.72813 13.0957 3.67668 13.2201 3.67676 13.3498C3.67688 13.4794 3.72859 13.6037 3.82043 13.6952C3.82047 13.6952 4.7784 14.6495 5.0618 14.933C5.40375 15.2749 6.30293 16.1677 6.31199 16.1767C6.40391 16.2679 6.52832 16.3189 6.65785 16.3184C6.78676 16.318 6.9102 16.2666 7.00129 16.1754L7.00262 16.1741C7.02383 16.1527 7.52414 15.6485 7.72145 15.4442C8.47438 14.6645 8.36496 13.4427 7.46125 12.539C6.51129 11.5891 5.33086 11.493 4.52387 12.3ZM7.01895 14.7659C6.93488 14.853 6.79004 15.0002 6.65309 15.139C6.36 14.8477 5.95633 14.4464 5.75238 14.2424C5.58043 14.0705 5.16043 13.6518 4.85625 13.3487L5.21445 12.9905C5.82559 12.3793 6.5602 13.0189 6.77078 13.2295C7.20926 13.6681 7.45609 14.3132 7.01895 14.7659Z" fill="#F1F1F4"/>
<path d="M14.4098 8.07191C14.578 8.24007 14.8429 8.26261 15.037 8.12531C15.0663 8.10464 15.0866 8.09027 15.3621 7.81472C15.4957 7.68113 15.6892 7.48624 15.9727 7.19953C16.1624 7.00777 16.1606 6.69859 15.9689 6.50898C15.7778 6.32003 15.4702 6.32105 15.2804 6.51085C15.2797 6.51152 15.279 6.51218 15.2784 6.51281C15.1199 6.67304 14.9221 6.87246 14.7571 7.03808L13.8595 6.1405L13.1689 6.83105L14.4098 8.07191Z" fill="#E2DFF4"/>
<path d="M11.9407 8.63399L11.4412 9.13352L11.2634 8.7368L10.5244 9.47575L11.2179 11.0224C11.3282 11.2684 11.6171 11.3785 11.8632 11.2682C11.9191 11.2431 11.9679 11.2089 12.0087 11.168C12.1479 11.0289 12.1943 10.8131 12.109 10.6228L11.8688 10.087L12.8919 9.06387L13.425 9.30485C13.6708 9.4159 13.96 9.30669 14.0711 9.06102C14.1821 8.81528 14.073 8.52602 13.8273 8.41493L12.2832 7.71692L11.5451 8.45501L11.9407 8.63399Z" fill="#E2DFF4"/>
<path d="M9.17945 13.3068C9.37012 13.4975 9.6793 13.4975 9.87 13.3068L10.9175 12.2594C11.1081 12.0687 11.1081 11.7595 10.9175 11.5688C10.7268 11.3782 10.4176 11.3782 10.227 11.5688L9.52477 12.271L8.97234 11.7186L9.5973 11.0936C9.78797 10.903 9.78801 10.5938 9.5973 10.4031L7.93652 12.0639L9.17945 13.3068Z" fill="#E2DFF4"/>
<path d="M7.01883 14.7658C6.93477 14.8529 6.78992 15.0002 6.65297 15.1389C6.36109 14.8489 5.95977 14.4498 5.755 14.2451L5.06445 14.9356C5.40832 15.2795 6.30289 16.1676 6.31188 16.1766C6.40379 16.2678 6.5282 16.3188 6.65773 16.3184C6.78664 16.3179 6.91008 16.2665 7.00117 16.1753C7.0016 16.1749 7.00203 16.1745 7.0025 16.174C7.02371 16.1527 7.52402 15.6485 7.72133 15.4441C8.47426 14.6644 8.36484 13.4426 7.46113 12.5389L6.77059 13.2295C7.20914 13.668 7.45598 14.3131 7.01883 14.7658Z" fill="#E2DFF4"/>
<path d="M19.8283 0.171621C19.5995 -0.057207 19.2285 -0.057207 18.9997 0.171621L15.2686 3.90279L16.0972 4.73143L19.8283 1.00025C20.0571 0.771426 20.0571 0.40041 19.8283 0.171621Z" fill="#FFCD00"/>
<path d="M16.097 4.73144L19.8281 1.00026C20.0569 0.771436 20.0569 0.400459 19.8281 0.171631L15.6826 4.31714L16.097 4.73144Z" fill="#FF9F22"/>
<path d="M15.9589 5.42188L14.5779 4.04078C14.349 3.81195 14.349 3.44098 14.5779 3.21215C14.8067 2.98332 15.1777 2.98332 15.4065 3.21215L16.7876 4.59324C17.0164 4.82207 17.0164 5.19305 16.7876 5.42188C16.5588 5.6507 16.1878 5.6507 15.9589 5.42188Z" fill="#FFEB99"/>
<path d="M15.9591 5.42189C16.1879 5.65072 16.5589 5.65072 16.7877 5.42189C17.0166 5.19306 17.0166 4.82208 16.7877 4.59326L16.0972 3.90271L15.2686 4.73134L15.9591 5.42189Z" fill="#FFCD00"/>
</svg>
