<svg width="24" height="24" viewBox="0 0 24 24" fill="none" xmlns="http://www.w3.org/2000/svg">
<path fill-rule="evenodd" clip-rule="evenodd" d="M2.00098 6.63299C2.00098 4.07399 4.07698 1.99799 6.63598 1.99799C9.19498 1.99799 11.271 4.07399 11.271 6.63299C11.271 9.19199 9.19498 11.268 6.63598 11.268C4.07398 11.268 2.00098 9.19499 2.00098 6.63299Z" fill="#F91F3E"/>
<path fill-rule="evenodd" clip-rule="evenodd" d="M12.7324 17.367C12.7324 14.808 14.8084 12.732 17.3674 12.732C19.9264 12.732 22.0024 14.808 22.0024 17.367C22.0024 19.926 19.9264 22.002 17.3674 22.002C14.8084 21.999 12.7324 19.926 12.7324 17.367Z" fill="#F91F3E"/>
<path d="M2.00098 17.499C2.00098 15.378 2.00098 14.316 2.66098 13.659C3.32098 12.999 4.37998 12.999 6.50098 12.999C8.62198 12.999 9.68398 12.999 10.341 13.659C11.001 14.319 11.001 15.378 11.001 17.499C11.001 19.62 11.001 20.682 10.341 21.339C9.68098 21.999 8.62198 21.999 6.50098 21.999C4.37998 21.999 3.31798 21.999 2.66098 21.339C2.00398 20.679 2.00098 19.62 2.00098 17.499Z" fill="#F91F3E"/>
<path d="M12.999 6.50098C12.999 4.37998 12.999 3.31798 13.659 2.66098C14.319 2.00398 15.378 2.00098 17.499 2.00098C19.62 2.00098 20.682 2.00098 21.339 2.66098C21.996 3.32098 21.999 4.37998 21.999 6.50098C21.999 8.62198 21.999 9.68398 21.339 10.341C20.679 11.001 19.62 11.001 17.499 11.001C15.378 11.001 14.316 11.001 13.659 10.341C12.999 9.68098 12.999 8.62198 12.999 6.50098Z" fill="#F91F3E"/>
</svg>
