<svg width="24" height="24" viewBox="0 0 24 24" fill="none" xmlns="http://www.w3.org/2000/svg">
<path d="M14.5003 12.75C14.0245 12.7549 13.5535 12.6544 13.1213 12.4555C12.689 12.2567 12.3062 11.9645 12.0003 11.6C11.6922 11.9618 11.3089 12.2522 10.8772 12.4508C10.4454 12.6494 9.97555 12.7515 9.5003 12.75C9.02451 12.7549 8.55354 12.6544 8.12127 12.4555C7.68899 12.2567 7.30616 11.9645 7.0003 11.6C6.90811 11.7106 6.80784 11.8142 6.7003 11.91C6.36365 12.2163 5.96588 12.4478 5.53322 12.5891C5.10057 12.7305 4.64287 12.7785 4.1903 12.73C3.3712 12.6291 2.61817 12.2293 2.07562 11.6074C1.53307 10.9855 1.23918 10.1852 1.2503 9.36V8.65C1.24949 8.14038 1.33052 7.63393 1.4903 7.15L3.0603 2.45C3.17586 2.10095 3.39842 1.79717 3.6964 1.58176C3.99437 1.36636 4.35262 1.25028 4.7203 1.25H19.2803C19.648 1.25028 20.0062 1.36636 20.3042 1.58176C20.6022 1.79717 20.8247 2.10095 20.9403 2.45L22.5103 7.15C22.6701 7.63393 22.7511 8.14038 22.7503 8.65V9.36C22.762 10.1822 22.4709 10.98 21.9325 11.6014C21.394 12.2228 20.6458 12.6245 19.8303 12.73C19.3777 12.7798 18.9196 12.7324 18.4868 12.591C18.0539 12.4496 17.6563 12.2174 17.3203 11.91C17.2103 11.81 17.1003 11.69 17.0003 11.58C16.6936 11.945 16.3111 12.2387 15.8794 12.4408C15.4476 12.6428 14.977 12.7484 14.5003 12.75ZM4.7203 2.75C4.66781 2.75079 4.6168 2.76746 4.57396 2.7978C4.53112 2.82815 4.49847 2.87075 4.4803 2.92L2.9203 7.62C2.81197 7.94246 2.75461 8.27985 2.7503 8.62V9.33C2.73563 9.78144 2.88752 10.2225 3.17704 10.5692C3.46656 10.9159 3.87348 11.144 4.3203 11.21C4.56145 11.235 4.80515 11.2096 5.03596 11.1354C5.26677 11.0612 5.47965 10.9399 5.6611 10.7791C5.84256 10.6184 5.98863 10.4217 6.09006 10.2015C6.19148 9.98126 6.24605 9.7424 6.2503 9.5C6.2503 9.30109 6.32932 9.11032 6.46997 8.96967C6.61063 8.82902 6.80139 8.75 7.0003 8.75C7.19922 8.75 7.38998 8.82902 7.53063 8.96967C7.67129 9.11032 7.7503 9.30109 7.7503 9.5C7.73886 9.73284 7.77628 9.9655 7.86018 10.183C7.94407 10.4005 8.07258 10.598 8.23742 10.7629C8.40226 10.9277 8.59979 11.0562 8.8173 11.1401C9.0348 11.224 9.26746 11.2614 9.5003 11.25C9.96362 11.2474 10.4072 11.0622 10.7348 10.7345C11.0625 10.4069 11.2477 9.96332 11.2503 9.5C11.2503 9.30109 11.3293 9.11032 11.47 8.96967C11.6106 8.82902 11.8014 8.75 12.0003 8.75C12.1992 8.75 12.39 8.82902 12.5306 8.96967C12.6713 9.11032 12.7503 9.30109 12.7503 9.5C12.7389 9.73284 12.7763 9.9655 12.8602 10.183C12.9441 10.4005 13.0726 10.598 13.2374 10.7629C13.4023 10.9277 13.5998 11.0562 13.8173 11.1401C14.0348 11.224 14.2675 11.2614 14.5003 11.25C14.9636 11.2474 15.4072 11.0622 15.7348 10.7345C16.0625 10.4069 16.2477 9.96332 16.2503 9.5C16.2503 9.30109 16.3293 9.11032 16.47 8.96967C16.6106 8.82902 16.8014 8.75 17.0003 8.75C17.1992 8.75 17.39 8.82902 17.5306 8.96967C17.6713 9.11032 17.7503 9.30109 17.7503 9.5C17.7504 9.74493 17.8019 9.98712 17.9015 10.2109C18.0011 10.4347 18.1466 10.635 18.3285 10.799C18.5104 10.9631 18.7247 11.087 18.9576 11.163C19.1905 11.239 19.4367 11.2652 19.6803 11.24C20.1271 11.174 20.5341 10.9459 20.8236 10.5992C21.1131 10.2525 21.265 9.81144 21.2503 9.36V8.65C21.246 8.30985 21.1886 7.97246 21.0803 7.65L19.5203 2.95C19.5021 2.90075 19.4695 2.85815 19.4267 2.8278C19.3838 2.79746 19.3328 2.78079 19.2803 2.78L4.7203 2.75Z" fill="#292929"/>
<path d="M20 22.75H4C3.53668 22.7473 3.09309 22.5621 2.76546 22.2345C2.43784 21.9069 2.25263 21.4633 2.25 21V11.48C2.25 11.2811 2.32902 11.0903 2.46967 10.9496C2.61032 10.809 2.80109 10.73 3 10.73C3.19891 10.73 3.38968 10.809 3.53033 10.9496C3.67098 11.0903 3.75 11.2811 3.75 11.48V21C3.75 21.0663 3.77634 21.1299 3.82322 21.1767C3.87011 21.2236 3.9337 21.25 4 21.25H20C20.0663 21.25 20.1299 21.2236 20.1768 21.1767C20.2237 21.1299 20.25 21.0663 20.25 21V11.47C20.25 11.2711 20.329 11.0803 20.4697 10.9396C20.6103 10.799 20.8011 10.72 21 10.72C21.1989 10.72 21.3897 10.799 21.5303 10.9396C21.671 11.0803 21.75 11.2711 21.75 11.47V21C21.7474 21.4633 21.5622 21.9069 21.2345 22.2345C20.9069 22.5621 20.4633 22.7473 20 22.75Z" fill="#292929"/>
<path d="M15.5 22.75H8.5C8.30189 22.7474 8.11263 22.6676 7.97253 22.5275C7.83244 22.3874 7.75259 22.1981 7.75 22V17C7.75263 16.5367 7.93784 16.0931 8.26546 15.7655C8.59309 15.4378 9.03668 15.2526 9.5 15.25H14.5C14.9633 15.2526 15.4069 15.4378 15.7345 15.7655C16.0622 16.0931 16.2474 16.5367 16.25 17V22C16.2474 22.1981 16.1676 22.3874 16.0275 22.5275C15.8874 22.6676 15.6981 22.7474 15.5 22.75ZM9.25 21.25H14.75V17C14.75 16.9337 14.7237 16.8701 14.6768 16.8232C14.6299 16.7763 14.5663 16.75 14.5 16.75H9.5C9.4337 16.75 9.37011 16.7763 9.32322 16.8232C9.27634 16.8701 9.25 16.9337 9.25 17V21.25Z" fill="#292929"/>
</svg>
