<svg width="24" height="24" viewBox="0 0 24 24" fill="none" xmlns="http://www.w3.org/2000/svg">
<g clip-path="url(#clip0_4005_28)">
<path d="M1.32698 18.7619L11.6145 23.9057C11.7346 23.9657 11.8717 24 12.0003 24C12.1289 24 12.2661 23.9657 12.3861 23.9057L15.8153 22.1911C16.2354 21.9768 16.4068 21.4624 16.2011 21.0423C15.9867 20.6223 15.4724 20.4508 15.0523 20.6565L12.8576 21.7539V11.6721L21.4306 7.3856V13.7124C21.4306 14.184 21.8164 14.5697 22.2879 14.5697C22.7594 14.5697 23.1452 14.184 23.1452 13.7124V5.99678C23.1452 5.67101 22.9651 5.37096 22.6737 5.23379L12.3861 0.0900161C12.1461 -0.0300054 11.8631 -0.0300054 11.6231 0.0900161L1.33555 5.23379C1.0355 5.37096 0.855469 5.67101 0.855469 5.99678V17.9989C0.855469 18.3247 1.0355 18.6248 1.32698 18.7619ZM2.57006 7.3856L11.143 11.6721V21.7539L2.57006 17.4674V7.3856ZM20.3675 5.99678L12.0003 10.1804L8.77688 8.56867L17.1441 4.38507L20.3675 5.99678ZM12.0003 1.81318L15.2237 3.4249L6.85654 7.6085L3.63311 5.99678L12.0003 1.81318Z" fill="#292929"/>
<path d="M19.7158 22.2854C20.1874 22.2854 20.5731 21.8996 20.5731 21.4281V18.3504L20.8218 18.599C20.9932 18.7705 21.2075 18.8562 21.4304 18.8562C21.6533 18.8562 21.8677 18.7705 22.0391 18.6076C22.3735 18.2733 22.3735 17.7332 22.0391 17.3988L20.3245 15.6842C19.9902 15.3499 19.4501 15.3499 19.1157 15.6842L17.4011 17.3988C17.0668 17.7332 17.0668 18.2733 17.4011 18.6076C17.7355 18.942 18.2756 18.942 18.6099 18.6076L18.8586 18.3504V21.4281C18.8586 21.8996 19.2443 22.2854 19.7158 22.2854Z" fill="#F91F3E"/>
</g>
<defs>
<clipPath id="clip0_4005_28">
<rect width="24" height="24" fill="white"/>
</clipPath>
</defs>
</svg>
