<svg width="229" height="30" viewBox="0 0 229 30" fill="none" xmlns="http://www.w3.org/2000/svg">
<g clip-path="url(#clip0_4006_34)">
<path d="M12.079 30C15.1523 30 17.6539 29.2874 19.5122 27.791C21.3705 26.2233 22.3711 24.0855 22.3711 21.3777C22.3711 18.0998 20.8702 15.677 17.8683 14.1093C19.941 12.4703 21.0131 10.6888 21.0131 8.90736C21.0131 6.057 20.1554 3.9905 18.5115 2.63658C16.7962 1.35392 14.4376 0.712585 11.3642 0.712585H0V29.9287H12.079V30ZM10.578 5.34441C12.079 5.34441 13.1511 5.62945 13.8658 6.27078C14.652 6.76959 15.0808 7.69596 15.0808 8.97862C15.0808 10.2613 14.5805 11.1876 13.5799 11.829C12.5793 12.399 11.2928 12.7553 9.72035 12.7553H5.57491V5.34441H10.6495H10.578ZM11.936 17.2447C13.294 17.2447 14.3661 17.6722 15.2238 18.4561C16.1529 19.1686 16.5818 20.1663 16.5818 21.4489C16.5818 22.7316 16.1529 23.7292 15.2238 24.4418C14.2946 25.1544 13.1511 25.5107 11.6501 25.5107H5.57491V17.3159H12.0075L11.936 17.2447Z" fill="#292929"/>
<path d="M27.2314 0.712585V29.9287H32.7349V0.712585H27.2314Z" fill="#292929"/>
<path d="M59.1798 30H64.8262V0.712585H59.1798V20.1663L45.6714 0.712585H40.168V29.9287H45.6714V10.4038L59.2513 30H59.1798Z" fill="#292929"/>
<path d="M89.4133 0.712587V13.0404H77.7632V0.427551L72.2598 0.712587V29.9287H77.7632V17.4584H89.4133V29.9287H94.9168V0.712587H89.4133Z" fill="#292929"/>
<path d="M121.433 30H127.079V0.712585H121.433V20.1663L107.924 0.712585H102.421V29.9287H107.924V10.4038L121.504 30H121.433Z" fill="#292929"/>
<path d="M151.666 0.712587V13.0404H140.016V0.427551L134.513 0.712587V29.9287H140.016V17.4584H151.666V29.9287H157.17V0.712587H151.666Z" fill="#292929"/>
<path d="M164.674 0.712585V29.9287H170.177V0.712585H164.674Z" fill="#292929"/>
<path d="M183.114 20.8076V30H177.61V0.712589H183.114V12.8979L195.907 0L200.053 3.27791L189.904 13.8242L201.84 30H194.835L186.044 17.8147L183.042 20.8076H183.114Z" fill="#292929"/>
<path d="M211.56 30V18.8836H216.778L223.067 30H229L221.852 17.3872C223.353 16.7458 224.568 15.7482 225.426 14.3943C226.355 13.0404 226.784 11.4014 226.784 9.61995C226.784 6.76959 225.64 4.56057 223.496 3.06413C221.423 1.49643 218.636 0.712585 215.134 0.712585H206.057V29.9287H211.56V30ZM214.991 5.34441C218.922 5.34441 220.923 6.91211 220.923 9.97624C220.923 11.4727 220.351 12.5416 219.279 13.2542C218.279 13.9667 216.921 14.323 215.134 14.323H211.56V5.34441H214.991Z" fill="#292929"/>
</g>
<defs>
<clipPath id="clip0_4006_34">
<rect width="229" height="30" fill="white"/>
</clipPath>
</defs>
</svg>
